<?xml version="1.0" encoding="utf-8"?>
<!-- Generator: Adobe Illustrator 26.2.1, SVG Export Plug-In . SVG Version: 6.00 Build 0)  -->
<svg version="1.1" id="Layer_1" xmlns="http://www.w3.org/2000/svg" xmlns:xlink="http://www.w3.org/1999/xlink" x="0px" y="0px"
	 viewBox="0 0 30 30" style="enable-background:new 0 0 30 30;" xml:space="preserve">
<style type="text/css">
	.st0{fill:#FFFFFF;}
	.st1{fill:none;stroke:#FFFFFF;stroke-width:1.5965;stroke-linecap:round;stroke-linejoin:round;stroke-miterlimit:10;}
</style>
<g>
	<g>
		<g>
			<path class="st0" d="M13.5,14.11c0,0,1.48-0.11,1.48-1.92c0-1.81-1.21-2.69-2.74-2.69H7.19v10.1h5.04c0,0,3.08,0.1,3.08-2.98
				C15.31,16.62,15.44,14.11,13.5,14.11z M9.41,11.3h2.82c0,0,0.69,0,0.69,1.05c0,1.05-0.4,1.2-0.86,1.2H9.41V11.3z M12.09,17.8
				H9.41v-2.7h2.82c0,0,1.02-0.01,1.02,1.39C13.25,17.67,12.49,17.79,12.09,17.8z"/>
		</g>
		<g>
			<path class="st0" d="M19.41,12.07c-3.73,0-3.72,3.88-3.72,3.88s-0.25,3.86,3.72,3.86c0,0,3.31,0.2,3.31-2.68h-1.7
				c0,0,0.06,1.09-1.55,1.09c0,0-1.71,0.12-1.71-1.76h5.02C22.78,16.45,23.34,12.07,19.41,12.07z M20.93,15.1h-3.18
				c0,0,0.21-1.56,1.7-1.56C20.95,13.55,20.93,15.1,20.93,15.1z"/>
		</g>
		<g>
			<rect x="17.33" y="10.1" class="st0" width="4" height="1.24"/>
		</g>
	</g>
	<path class="st1" d="M23.47,28.16H6.53c-2.78,0-5.03-2.25-5.03-5.03V6.19c0-2.78,2.25-5.03,5.03-5.03h16.93
		c2.78,0,5.03,2.25,5.03,5.03v16.93C28.5,25.9,26.25,28.16,23.47,28.16z"/>
</g>
</svg>
