<?xml version="1.0" encoding="utf-8"?>
<!-- Generator: Adobe Illustrator 26.2.1, SVG Export Plug-In . SVG Version: 6.00 Build 0)  -->
<svg version="1.1" id="Layer_1" xmlns="http://www.w3.org/2000/svg" xmlns:xlink="http://www.w3.org/1999/xlink" x="0px" y="0px"
	 viewBox="0 0 30 30" style="enable-background:new 0 0 30 30;" xml:space="preserve">
<style type="text/css">
	.st0{fill:#FFFFFF;}
	.st1{fill:none;stroke:#FFFFFF;stroke-width:1.5965;stroke-linecap:round;stroke-linejoin:round;stroke-miterlimit:10;}
</style>
<g>
	<g>
		<g>
			<path class="st0" d="M11.21,9.7c0,0.83-0.53,1.51-1.51,1.51c-0.91,0-1.51-0.68-1.51-1.44c0-0.83,0.61-1.59,1.51-1.59
				S11.21,8.86,11.21,9.7z"/>
		</g>
		<g>
			<rect x="8.18" y="11.97" class="st0" width="3.03" height="9.85"/>
		</g>
		<g>
			<path class="st0" d="M18.48,12.12c-1.59,0-2.5,0.91-2.88,1.51h-0.08l-0.15-1.29h-2.73c0,0.83,0.08,1.82,0.08,2.95v6.51h3.03
				v-5.38c0-0.3,0-0.53,0.08-0.76c0.23-0.53,0.61-1.21,1.44-1.21c1.06,0,1.51,0.91,1.51,2.12v5.23h3.03v-5.6
				C21.82,13.41,20.38,12.12,18.48,12.12z"/>
		</g>
	</g>
	<path class="st1" d="M23.47,28.5H6.53c-2.78,0-5.03-2.25-5.03-5.03V6.53c0-2.78,2.25-5.03,5.03-5.03h16.93
		c2.78,0,5.03,2.25,5.03,5.03v16.93C28.5,26.25,26.25,28.5,23.47,28.5z"/>
</g>
</svg>
