<?xml version="1.0" encoding="utf-8"?>
<!-- Generator: Adobe Illustrator 26.2.1, SVG Export Plug-In . SVG Version: 6.00 Build 0)  -->
<svg version="1.1" id="Layer_1" xmlns="http://www.w3.org/2000/svg" xmlns:xlink="http://www.w3.org/1999/xlink" x="0px" y="0px"
	 viewBox="0 0 757.98 280.08" style="enable-background:new 0 0 757.98 280.08;" xml:space="preserve">
<style type="text/css">
	.st0{fill:#D3DAEA;}
	.st1{fill:#FFFFFF;}
</style>
<g>
	<g>
		<g>
			<path class="st0" d="M296.07,114.43c-0.95-2.46-2.6-4.86-4.64-6c-1.02-0.57-2.12-0.83-3.24-0.82c-1.13,0.01-2.29,0.3-3.44,0.76
				c-1.14,0.48-2.28,1.09-3.37,1.82c-0.55,0.35-1.09,0.75-1.61,1.16c-0.54,0.38-1.03,0.83-1.54,1.25c-0.99,0.89-1.94,1.8-2.82,2.8
				c-0.46,0.48-0.87,1.01-1.3,1.51c-0.41,0.53-0.82,1.05-1.2,1.59c-1.56,2.16-2.91,4.48-4.03,6.92c-1.15,2.42-2.04,4.96-2.74,7.53
				c-0.19,0.64-0.32,1.29-0.48,1.94c-0.13,0.65-0.28,1.3-0.38,1.96c-0.24,1.31-0.39,2.62-0.52,3.93c-0.19,2.62-0.15,5.23,0.23,7.74
				c0.2,1.24,0.45,2.48,0.84,3.63l0.07,0.22c0.02,0.08,0.04,0.1,0.06,0.15c0.04,0.09,0.06,0.19,0.1,0.28
				c0.04,0.08,0.08,0.17,0.11,0.25l0.13,0.22c0.17,0.28,0.36,0.5,0.58,0.68c0.43,0.36,1.07,0.64,1.98,0.74
				c0.89,0.11,1.96,0.03,3.07-0.21c2.22-0.5,4.57-1.53,6.74-2.9c2.2-1.34,4.25-3.02,6.15-4.87c3.79-3.73,6.89-8.26,9.13-13.25
				c1.12-2.5,2.02-5.11,2.71-7.82c0.7-2.7,1.14-5.49,1.43-8.33l1.73,0.13l0,0c-0.15,2.5-0.47,4.97-0.84,7.42
				c-0.35,2.45-0.82,4.88-1.25,7.3l-2.77,14.42c-0.9,4.77-1.74,9.54-2.26,14.21c-0.25,2.33-0.4,4.65-0.37,6.83
				c0.02,1.09,0.11,2.14,0.27,3.08c0.16,0.94,0.42,1.76,0.7,2.24c0.13,0.25,0.26,0.38,0.35,0.45c0.09,0.06,0.13,0.08,0.22,0.11
				c0.05,0.01,0.11,0.03,0.19,0.04c0.11,0.01,0.22,0.04,0.34,0.03c0.24,0.01,0.5-0.01,0.81-0.06c0.61-0.1,1.39-0.4,2.21-0.8
				c0.82-0.42,1.69-0.97,2.56-1.58c0.88-0.61,1.75-1.3,2.62-2.05c0.87-0.73,1.73-1.52,2.57-2.35c1.68-1.64,3.29-3.44,4.79-5.32
				c2.97-3.8,5.63-7.89,8.13-12.07c2.49-4.19,4.87-8.48,6.98-12.88l0.77,0.31c-1.64,4.66-3.55,9.2-5.6,13.7
				c-2.06,4.49-4.27,8.93-6.72,13.3c-1.21,2.2-2.46,4.4-3.85,6.58c-1.4,2.17-2.93,4.32-4.88,6.31c-0.98,0.98-2.07,1.94-3.35,2.77
				c-0.65,0.42-1.33,0.81-2.09,1.15c-0.75,0.34-1.57,0.63-2.47,0.82c-0.44,0.11-0.91,0.17-1.38,0.22c-0.48,0.03-0.96,0.06-1.46,0.02
				c-0.49-0.01-0.99-0.09-1.48-0.18c-0.52-0.11-1.05-0.26-1.57-0.47c-1.05-0.41-2.06-1.08-2.85-1.86c-0.79-0.79-1.38-1.66-1.81-2.51
				c-0.85-1.7-1.2-3.29-1.39-4.77c-0.19-1.49-0.22-2.89-0.19-4.25c0.06-2.72,0.42-5.29,0.84-7.81c0.87-5.03,2.14-9.86,3.52-14.62
				c0.7-2.38,1.42-4.74,2.19-7.08c0.77-2.34,1.5-4.68,2.3-7c1.56-4.65,3.17-9.27,4.54-13.93l0,0l1.73,0.13
				c0.8,5.85,0.33,11.99-1.42,17.82c-1.75,5.84-4.74,11.37-8.85,16.06c-2.04,2.36-4.39,4.48-7.01,6.31
				c-2.64,1.8-5.55,3.37-8.95,4.21c-1.7,0.41-3.53,0.66-5.52,0.47c-1.96-0.16-4.17-0.88-5.98-2.35c-0.9-0.72-1.67-1.61-2.25-2.56
				c-0.14-0.24-0.28-0.48-0.41-0.72l-0.35-0.73c-0.11-0.24-0.19-0.49-0.29-0.73c-0.04-0.12-0.1-0.26-0.13-0.35l-0.09-0.3
				c-0.51-1.59-0.83-3.2-1.07-4.8c-0.25-1.61-0.34-3.2-0.37-4.8c-0.02-1.59,0.08-3.17,0.23-4.73c0.33-3.12,0.96-6.19,1.9-9.14
				c0.91-2.97,2.13-5.83,3.59-8.56c1.45-2.73,3.2-5.31,5.2-7.69c2-2.38,4.3-4.53,6.84-6.36c1.29-0.9,2.61-1.74,4.01-2.44
				c1.4-0.72,2.89-1.34,4.49-1.76c1.6-0.41,3.33-0.62,5.08-0.4c0.87,0.11,1.75,0.34,2.57,0.67c0.82,0.35,1.58,0.81,2.25,1.35
				c1.35,1.08,2.34,2.44,3.06,3.85c0.35,0.71,0.64,1.44,0.88,2.17c0.24,0.75,0.42,1.46,0.54,2.28L296.07,114.43z"/>
			<g>
				<path class="st1" d="M296.8,132.96c-0.65,2.18-1.48,4.32-2.48,6.39l-0.98,5.09c-0.9,4.77-1.74,9.54-2.26,14.21
					c-0.25,2.33-0.4,4.65-0.37,6.83c0.02,1.09,0.11,2.14,0.27,3.08c0.16,0.94,0.42,1.76,0.7,2.24c0.13,0.25,0.26,0.38,0.35,0.45
					c0.09,0.06,0.13,0.08,0.22,0.11c0.05,0.01,0.11,0.03,0.19,0.04c0.1,0,0.19,0.03,0.29,0.03c-0.06-0.23-0.11-0.48-0.15-0.74
					c-0.17-0.94-0.25-1.99-0.27-3.08c-0.04-2.18,0.11-4.5,0.37-6.83c0.52-4.68,1.36-9.44,2.26-14.21l0.98-5.09
					c1-2.07,1.82-4.21,2.48-6.39c1.75-5.84,2.22-11.97,1.42-17.82l-1.38-0.1C298.89,122.4,298.34,127.79,296.8,132.96z"/>
				<path class="st1" d="M294.75,107.46c0.35,0.71,0.64,1.44,0.88,2.17c0.24,0.75,0.42,1.46,0.54,2.28l-1.19,0.26
					c0.42,0.72,0.8,1.48,1.09,2.25l1.7-0.37c-0.12-0.82-0.3-1.53-0.54-2.28c-0.24-0.74-0.53-1.46-0.88-2.17
					c-0.52-1.02-1.18-2.01-2.02-2.9C294.48,106.95,294.62,107.21,294.75,107.46z"/>
				<path class="st1" d="M264.22,150l0.07,0.22c0.02,0.08,0.04,0.1,0.06,0.15c0.04,0.09,0.06,0.19,0.1,0.28
					c0.04,0.08,0.08,0.17,0.11,0.25l0.13,0.22c0.17,0.28,0.36,0.5,0.58,0.68c0.16,0.13,0.35,0.24,0.56,0.35l0-0.02
					c-0.39-1.16-0.64-2.39-0.84-3.63c-0.38-2.5-0.42-5.12-0.23-7.74c0.12-1.31,0.27-2.62,0.52-3.93c0.1-0.66,0.25-1.3,0.38-1.96
					c0.16-0.65,0.29-1.3,0.48-1.94c0.7-2.57,1.6-5.11,2.74-7.53c1.12-2.43,2.47-4.75,4.03-6.92c0.38-0.55,0.8-1.06,1.2-1.59
					c0.43-0.5,0.84-1.03,1.3-1.51c0.88-1,1.84-1.91,2.82-2.8c0.51-0.41,1.01-0.86,1.54-1.25c0.52-0.4,1.06-0.8,1.61-1.16
					c1.09-0.73,2.23-1.34,3.37-1.82c1.15-0.47,2.31-0.75,3.44-0.76c1.13-0.01,2.22,0.25,3.24,0.82c0.68,0.38,1.31,0.9,1.89,1.52
					c-0.93-1.54-2.11-2.88-3.49-3.65c-1.02-0.57-2.12-0.83-3.24-0.82c-1.13,0.01-2.29,0.3-3.44,0.76c-1.14,0.48-2.28,1.09-3.37,1.82
					c-0.55,0.35-1.09,0.75-1.61,1.16c-0.54,0.38-1.03,0.83-1.54,1.25c-0.99,0.89-1.94,1.8-2.82,2.8c-0.46,0.48-0.87,1.01-1.3,1.51
					c-0.41,0.53-0.82,1.05-1.2,1.59c-1.56,2.16-2.91,4.48-4.03,6.92c-1.15,2.42-2.04,4.96-2.74,7.53c-0.19,0.64-0.32,1.29-0.48,1.94
					c-0.13,0.65-0.28,1.3-0.38,1.96c-0.24,1.31-0.39,2.62-0.52,3.93c-0.19,2.62-0.15,5.23,0.23,7.74
					C263.58,147.61,263.83,148.84,264.22,150z"/>
				<path class="st1" d="M285.11,151.94c-1.3,1.21-2.69,2.35-4.17,3.39c-2.64,1.8-5.55,3.37-8.95,4.21
					c-1.7,0.41-3.53,0.66-5.52,0.47c-1.96-0.16-4.17-0.88-5.98-2.35c-0.31-0.25-0.6-0.53-0.88-0.82c0.08,0.13,0.15,0.26,0.23,0.39
					c0.59,0.94,1.36,1.83,2.25,2.56c1.81,1.47,4.01,2.18,5.98,2.35c1.99,0.18,3.82-0.06,5.52-0.47c3.4-0.84,6.31-2.41,8.95-4.21
					c0.57-0.4,1.12-0.82,1.66-1.24C284.48,154.78,284.78,153.35,285.11,151.94z"/>
				<path class="st1" d="M325.05,136.45c-2,4.17-4.24,8.23-6.59,12.22c-2.01,4.38-4.17,8.7-6.56,12.96c-1.21,2.2-2.46,4.4-3.85,6.58
					c-1.4,2.17-2.93,4.32-4.88,6.31c-0.98,0.98-2.07,1.94-3.35,2.77c-0.65,0.42-1.33,0.81-2.09,1.15c-0.75,0.34-1.57,0.63-2.47,0.82
					c-0.44,0.11-0.91,0.17-1.38,0.22c-0.48,0.03-0.96,0.06-1.46,0.02c-0.49-0.01-0.99-0.09-1.48-0.18
					c-0.52-0.11-1.05-0.26-1.57-0.47c-1.05-0.41-2.06-1.08-2.85-1.86c0,0-0.01-0.01-0.01-0.01c0.41,0.73,0.93,1.47,1.61,2.15
					c0.79,0.78,1.8,1.45,2.85,1.86c0.52,0.21,1.06,0.36,1.57,0.47c0.49,0.08,0.99,0.16,1.48,0.18c0.5,0.04,0.98,0.01,1.46-0.02
					c0.47-0.05,0.94-0.11,1.38-0.22c0.9-0.19,1.72-0.48,2.47-0.82c0.77-0.33,1.44-0.73,2.09-1.15c1.29-0.83,2.37-1.79,3.35-2.77
					c1.95-1.99,3.48-4.13,4.88-6.31c1.39-2.17,2.64-4.38,3.85-6.58c2.45-4.38,4.66-8.81,6.72-13.3c2.04-4.5,3.96-9.04,5.6-13.7
					L325.05,136.45z"/>
			</g>
		</g>
		<g>
			<path class="st0" d="M324.65,135.98c0.13,0,0.38-0.08,0.61-0.19c0.24-0.12,0.48-0.26,0.72-0.42c0.48-0.32,0.95-0.71,1.4-1.1
				c0.91-0.8,1.77-1.69,2.59-2.61c1.65-1.84,3.12-3.85,4.49-5.9c1.36-2.07,2.59-4.23,3.64-6.47c1.05-2.23,1.93-4.56,2.43-6.93
				c0.26-1.18,0.4-2.38,0.37-3.55c-0.03-1.16-0.23-2.31-0.77-3.24c-0.53-0.93-1.35-1.6-2.31-1.94c-0.95-0.34-2.02-0.38-3.06-0.21
				c-2.09,0.34-4.06,1.48-5.64,2.81c-1.58,1.34-2.81,2.91-3.59,4.32c-0.39,0.71-0.67,1.38-0.87,2c-0.1,0.31-0.18,0.6-0.23,0.9
				c-0.03,0.15-0.06,0.29-0.08,0.43l-0.11,0.77c-0.33,2.31-0.73,4.47-1.02,6.51c-0.28,2.03-0.5,3.98-0.19,6.04
				c0.31,2.04,1.15,4.22,2.56,6.13c1.38,1.94,3.21,3.62,5.25,4.99c0.5,0.36,1.04,0.66,1.56,0.99l1.63,0.95
				c1.09,0.63,2.17,1.27,3.25,1.92c1.08,0.65,2.16,1.33,3.22,2.06c1.06,0.73,2.11,1.54,3.09,2.51c0.97,0.98,1.83,2.24,2.32,3.67
				c0.25,0.71,0.39,1.44,0.48,2.16c0.1,0.71,0.14,1.41,0.14,2.09c0.01,2.72-0.17,5.19-0.28,7.69c-0.11,2.49-0.18,4.98-0.23,7.45
				c-0.09,4.94-0.17,9.83-0.06,14.56c0.05,2.36,0.15,4.69,0.38,6.89c0.12,1.09,0.28,2.16,0.48,3.13c0.21,0.97,0.47,1.87,0.75,2.53
				c0.14,0.33,0.29,0.59,0.4,0.79c0.11,0.18,0.19,0.28,0.22,0.33c0.03,0.05,0.01,0.07,0.07,0.12c0.05,0.04,0.19,0.11,0.44,0.1
				c0.04,0.01,0.17,0,0.27-0.01l0.33-0.02c0.22-0.02,0.44-0.06,0.66-0.08l0.66-0.13l0.67-0.16c0.89-0.25,1.79-0.61,2.68-1.09
				c1.78-0.95,3.54-2.3,5.15-3.91c1.61-1.61,3.13-3.43,4.48-5.4c2.76-3.92,4.97-8.34,6.83-12.89c0.94-2.28,1.81-4.59,2.59-6.94
				c0.8-2.34,1.52-4.71,2.18-7.1c1.32-4.78,2.4-9.64,3.12-14.54l1.72,0.23c-0.66,5-1.55,9.93-2.59,14.86
				c-1.05,4.92-2.28,9.81-3.79,14.66c-1.54,4.83-3.29,9.63-5.56,14.35c-1.16,2.34-2.44,4.68-4.02,6.91
				c-1.58,2.23-3.43,4.4-5.81,6.22c-1.19,0.91-2.49,1.73-3.93,2.4c-0.36,0.16-0.72,0.32-1.1,0.47c-0.38,0.13-0.75,0.27-1.14,0.39
				c-0.39,0.11-0.77,0.23-1.17,0.32l-0.6,0.13c-0.2,0.04-0.38,0.09-0.65,0.12c-0.99,0.16-2.12,0.17-3.29-0.04
				c-1.17-0.2-2.36-0.67-3.36-1.32c-1.01-0.65-1.83-1.44-2.49-2.23c-0.65-0.8-1.13-1.62-1.54-2.41c-0.81-1.59-1.27-3.1-1.61-4.56
				c-0.35-1.46-0.55-2.87-0.69-4.26c-0.28-2.77-0.27-5.45-0.12-8.07c0.33-5.25,1.24-10.31,2.43-15.28c0.6-2.48,1.26-4.94,1.94-7.37
				l1-3.63c0.32-1.2,0.66-2.37,0.86-3.5c0.21-1.13,0.31-2.2,0.15-3.19c-0.08-0.49-0.22-0.98-0.43-1.45
				c-0.21-0.47-0.51-0.93-0.84-1.38c-0.67-0.9-1.53-1.73-2.46-2.49c-0.93-0.77-1.93-1.49-2.96-2.17c-4.1-2.75-8.67-4.82-13.15-7.79
				c-2.23-1.49-4.52-3.32-6.32-5.82c-0.89-1.24-1.68-2.61-2.27-4.05c-0.6-1.44-1.02-2.93-1.28-4.41c-0.53-2.96-0.47-5.79-0.17-8.43
				l0.06-0.49l0.03-0.25l0.05-0.34c0.08-0.47,0.18-0.94,0.29-1.4c0.25-0.92,0.58-1.81,0.99-2.64c0.82-1.67,1.92-3.11,3.15-4.29
				c2.49-2.36,5.46-3.72,8.44-4.38c2.99-0.66,6.04-0.67,8.94,0.03c1.44,0.36,2.86,0.95,4.08,1.84c1.23,0.89,2.17,2.14,2.69,3.48
				c0.51,1.35,0.67,2.73,0.61,4.06c-0.07,1.33-0.3,2.61-0.63,3.85c-0.67,2.48-1.68,4.82-2.8,7.08c-1.14,2.25-2.4,4.43-3.78,6.54
				c-1.36,2.12-2.84,4.15-4.41,6.13c-0.79,0.98-1.63,1.94-2.52,2.86c-0.45,0.46-0.93,0.9-1.44,1.33c-0.26,0.21-0.54,0.42-0.84,0.61
				c-0.31,0.19-0.64,0.38-1.13,0.49L324.65,135.98z"/>
			<g>
				<path class="st1" d="M324.01,131.19c0.33,0.46,0.68,0.91,1.06,1.34c-1.09-1.71-1.75-3.58-2.02-5.34
					c-0.31-2.06-0.09-4.01,0.19-6.04c0.29-2.03,0.69-4.19,1.02-6.51l0.11-0.77c0.02-0.15,0.05-0.29,0.08-0.43
					c0.05-0.29,0.13-0.59,0.23-0.9c0.19-0.62,0.48-1.29,0.87-2c0.78-1.42,2.01-2.98,3.59-4.32c1.58-1.33,3.54-2.47,5.64-2.81
					c1.04-0.17,2.1-0.13,3.06,0.21c0.37,0.13,0.73,0.32,1.05,0.55c-0.1-0.26-0.21-0.51-0.35-0.75c-0.53-0.93-1.35-1.6-2.31-1.94
					c-0.95-0.34-2.02-0.38-3.06-0.21c-2.09,0.34-4.06,1.48-5.64,2.81c-1.58,1.34-2.81,2.91-3.59,4.32c-0.39,0.71-0.67,1.38-0.87,2
					c-0.1,0.31-0.18,0.6-0.23,0.9c-0.03,0.15-0.06,0.29-0.08,0.43l-0.11,0.77c-0.33,2.31-0.73,4.47-1.02,6.51
					c-0.28,2.03-0.5,3.98-0.19,6.04C321.76,127.09,322.6,129.27,324.01,131.19z"/>
				<path class="st1" d="M340.27,102.62c0.51,1.35,0.67,2.73,0.61,4.06c-0.02,0.31-0.04,0.62-0.08,0.93
					c0.06,0.39,0.09,0.79,0.1,1.19c0.03,1.17-0.12,2.37-0.37,3.55c-0.5,2.38-1.39,4.7-2.43,6.93c-1.05,2.24-2.28,4.39-3.64,6.47
					c-1.38,2.06-2.85,4.07-4.49,5.9c-0.82,0.92-1.67,1.81-2.59,2.61c-0.1,0.09-0.2,0.17-0.3,0.25c0.36,0.31,0.73,0.61,1.11,0.89
					c0.05-0.05,0.1-0.09,0.14-0.14c0.89-0.92,1.73-1.88,2.52-2.86c1.58-1.98,3.06-4.01,4.41-6.13c1.37-2.11,2.64-4.29,3.78-6.54
					c1.12-2.26,2.13-4.59,2.8-7.08c0.33-1.24,0.57-2.52,0.63-3.85c0.06-1.33-0.1-2.71-0.61-4.06c-0.4-1.04-1.07-2.03-1.92-2.83
					C340.07,102.15,340.18,102.38,340.27,102.62z"/>
				<path class="st1" d="M344.33,148.27c0.25,0.71,0.39,1.44,0.48,2.16c0.1,0.71,0.14,1.41,0.14,2.09c0.01,2.72-0.17,5.19-0.28,7.69
					c-0.11,2.49-0.18,4.98-0.23,7.45c-0.09,4.94-0.17,9.83-0.06,14.56c0.05,2.36,0.15,4.69,0.38,6.89c0.12,1.09,0.28,2.16,0.48,3.13
					c0.21,0.97,0.47,1.87,0.75,2.53c0.14,0.33,0.29,0.59,0.4,0.79c0.11,0.18,0.19,0.28,0.22,0.33c0.03,0.05,0.01,0.07,0.07,0.12
					c0.05,0.04,0.19,0.11,0.44,0.1c0.03,0.01,0.1,0,0.18,0c-0.17-0.52-0.33-1.11-0.46-1.73c-0.2-0.98-0.36-2.04-0.48-3.13
					c-0.23-2.2-0.33-4.53-0.38-6.89c-0.11-4.74-0.04-9.63,0.06-14.56c0.05-2.47,0.12-4.95,0.23-7.45c0.1-2.51,0.29-4.98,0.28-7.69
					c-0.01-0.68-0.05-1.38-0.14-2.09c-0.09-0.71-0.23-1.44-0.48-2.16c-0.48-1.4-1.32-2.64-2.26-3.6
					C343.93,147.26,344.16,147.75,344.33,148.27z"/>
				<path class="st1" d="M325.63,137.44c3.68,2.2,7.34,4.01,10.69,6.25c1.03,0.68,2.03,1.4,2.96,2.17c0.55,0.45,1.08,0.94,1.55,1.44
					c-0.19-0.37-0.43-0.72-0.69-1.08c-0.67-0.9-1.53-1.73-2.46-2.49c-0.93-0.77-1.93-1.49-2.96-2.17
					c-3.35-2.25-7.01-4.05-10.69-6.25c-0.2,0.1-0.43,0.19-0.71,0.26l-0.12-0.76c-0.54-0.34-1.09-0.68-1.63-1.04
					c-1.84-1.23-3.71-2.7-5.33-4.57c0.2,0.3,0.4,0.6,0.61,0.89c1.8,2.49,4.09,4.32,6.32,5.82c0.54,0.36,1.09,0.7,1.63,1.04
					l0.12,0.76C325.21,137.63,325.43,137.54,325.63,137.44z"/>
				<path class="st1" d="M378.36,145.97c-0.39,2.68-0.89,5.34-1.48,7.99c-0.31,1.66-0.64,3.32-0.99,4.97
					c-1.05,4.92-2.28,9.81-3.79,14.66c-1.54,4.83-3.29,9.63-5.56,14.35c-1.16,2.34-2.44,4.68-4.02,6.91
					c-1.58,2.23-3.43,4.4-5.81,6.22c-1.19,0.91-2.49,1.73-3.93,2.4c-0.36,0.16-0.72,0.32-1.1,0.47c-0.38,0.13-0.75,0.27-1.14,0.39
					c-0.39,0.11-0.77,0.23-1.17,0.32l-0.6,0.13c-0.2,0.04-0.38,0.09-0.65,0.12c-0.99,0.16-2.12,0.17-3.29-0.04
					c-1.17-0.2-2.36-0.67-3.36-1.32c-0.74-0.47-1.37-1.02-1.92-1.6c0.3,0.5,0.63,1,1.03,1.49c0.66,0.8,1.48,1.59,2.49,2.23
					c1,0.65,2.19,1.11,3.36,1.32c1.17,0.21,2.3,0.19,3.29,0.04c0.28-0.03,0.45-0.08,0.65-0.12l0.6-0.13
					c0.39-0.09,0.78-0.21,1.17-0.32c0.38-0.12,0.76-0.26,1.14-0.39c0.37-0.15,0.73-0.31,1.1-0.47c1.43-0.67,2.74-1.49,3.93-2.4
					c2.38-1.83,4.23-4,5.81-6.22c1.58-2.23,2.86-4.57,4.02-6.91c2.27-4.72,4.02-9.51,5.56-14.35c1.5-4.85,2.74-9.74,3.79-14.66
					c1.04-4.92,1.94-9.86,2.59-14.86L378.36,145.97z"/>
			</g>
		</g>
		<g>
			<path class="st0" d="M413.84,112.86c-0.95-2.46-2.6-4.86-4.64-6c-1.02-0.57-2.12-0.83-3.24-0.82c-1.13,0.01-2.29,0.3-3.44,0.76
				c-1.14,0.48-2.28,1.09-3.37,1.82c-0.55,0.35-1.09,0.75-1.61,1.16c-0.54,0.38-1.03,0.83-1.54,1.25c-0.99,0.89-1.94,1.8-2.82,2.8
				c-0.46,0.48-0.87,1.01-1.3,1.51c-0.41,0.53-0.82,1.05-1.2,1.59c-1.56,2.16-2.91,4.48-4.03,6.92c-1.15,2.42-2.04,4.96-2.74,7.53
				c-0.19,0.64-0.32,1.29-0.48,1.94c-0.13,0.65-0.28,1.3-0.38,1.96c-0.24,1.31-0.39,2.62-0.52,3.93c-0.19,2.62-0.15,5.23,0.23,7.74
				c0.2,1.24,0.45,2.48,0.84,3.63l0.07,0.22c0.02,0.08,0.04,0.1,0.06,0.15c0.04,0.09,0.06,0.19,0.1,0.28
				c0.04,0.08,0.08,0.17,0.11,0.25l0.13,0.22c0.17,0.28,0.36,0.5,0.58,0.68c0.43,0.36,1.07,0.64,1.98,0.74
				c0.89,0.11,1.96,0.03,3.07-0.21c2.22-0.5,4.57-1.53,6.74-2.9c2.2-1.34,4.25-3.02,6.15-4.87c3.79-3.73,6.89-8.26,9.13-13.25
				c1.12-2.5,2.02-5.11,2.71-7.82c0.7-2.7,1.14-5.49,1.43-8.33l1.73,0.13l0,0c-0.1,2.52-0.4,5.01-0.74,7.48
				c-0.33,2.48-0.76,4.92-1.19,7.36c-0.87,4.88-1.84,9.71-2.74,14.51c-0.9,4.79-1.76,9.58-2.29,14.26
				c-0.26,2.33-0.41,4.65-0.37,6.82c0.03,1.08,0.11,2.12,0.29,3.04c0.16,0.91,0.43,1.7,0.69,2.12c0.13,0.21,0.24,0.33,0.31,0.38
				c0.08,0.06,0.13,0.08,0.25,0.12c0.29,0.07,0.66,0.13,1.26-0.05c0.59-0.16,1.35-0.56,2.11-1.09c0.78-0.52,1.57-1.2,2.34-1.94
				c1.54-1.5,3.04-3.23,4.45-5.09c1.43-1.84,2.77-3.8,4.1-5.79c2.62-4,5.12-8.17,7.53-12.4c1.21-2.12,2.4-4.26,3.58-6.4
				c0.59-1.07,1.18-2.15,1.74-3.24c0.58-1.07,1.14-2.18,1.66-3.24l1.67,0.47c-0.38,2.57-1.05,4.96-1.74,7.39
				c-0.7,2.41-1.5,4.79-2.37,7.14c-1.74,4.71-3.75,9.32-6.14,13.81c-2.43,4.48-5.1,8.88-8.93,12.91c-0.98,1-2.02,1.98-3.26,2.88
				c-1.24,0.89-2.66,1.73-4.43,2.28c-1.75,0.55-3.95,0.7-6.02,0.04c-1.05-0.33-2.11-0.9-2.97-1.64c-0.87-0.73-1.54-1.6-2.04-2.45
				c-0.99-1.71-1.4-3.34-1.66-4.85c-0.24-1.52-0.3-2.94-0.3-4.32c0.01-2.76,0.33-5.37,0.73-7.91c0.83-5.09,2.09-9.95,3.47-14.75
				c1.39-4.79,2.95-9.49,4.55-14.16c1.6-4.67,3.28-9.29,4.74-13.96l0,0l1.73,0.13c0.8,5.85,0.33,11.99-1.42,17.82
				c-1.75,5.84-4.74,11.37-8.85,16.06c-2.04,2.36-4.39,4.48-7.01,6.31c-2.64,1.8-5.55,3.37-8.95,4.21c-1.7,0.41-3.53,0.66-5.52,0.47
				c-1.96-0.16-4.17-0.88-5.98-2.35c-0.9-0.72-1.67-1.61-2.25-2.56c-0.14-0.24-0.28-0.48-0.41-0.72l-0.35-0.73
				c-0.11-0.24-0.19-0.49-0.29-0.73c-0.04-0.12-0.1-0.26-0.13-0.35l-0.09-0.3c-0.51-1.59-0.83-3.2-1.07-4.8
				c-0.25-1.61-0.34-3.2-0.37-4.8c-0.02-1.59,0.08-3.17,0.23-4.73c0.33-3.12,0.96-6.19,1.9-9.14c0.91-2.97,2.13-5.83,3.59-8.56
				c1.45-2.73,3.2-5.31,5.2-7.69c2-2.38,4.3-4.53,6.84-6.36c1.29-0.9,2.61-1.74,4.01-2.44c1.4-0.72,2.89-1.34,4.49-1.76
				c1.6-0.41,3.33-0.62,5.08-0.4c0.87,0.11,1.75,0.34,2.57,0.67c0.82,0.35,1.58,0.81,2.25,1.35c1.35,1.08,2.34,2.44,3.06,3.85
				c0.35,0.71,0.64,1.44,0.88,2.17c0.24,0.75,0.42,1.46,0.54,2.28L413.84,112.86z"/>
			<g>
				<path class="st1" d="M381.99,148.43l0.07,0.22c0.02,0.08,0.04,0.1,0.06,0.15c0.04,0.09,0.06,0.19,0.1,0.28
					c0.04,0.08,0.08,0.17,0.11,0.25l0.13,0.22c0.17,0.28,0.36,0.5,0.58,0.68c0.16,0.13,0.35,0.24,0.56,0.35l0-0.02
					c-0.39-1.16-0.64-2.39-0.84-3.63c-0.38-2.5-0.42-5.12-0.23-7.74c0.12-1.31,0.27-2.62,0.52-3.93c0.1-0.66,0.25-1.3,0.38-1.96
					c0.16-0.65,0.29-1.3,0.48-1.94c0.7-2.57,1.6-5.11,2.74-7.53c1.12-2.43,2.47-4.75,4.03-6.92c0.38-0.55,0.8-1.06,1.2-1.59
					c0.43-0.5,0.84-1.03,1.3-1.51c0.88-1,1.84-1.91,2.82-2.8c0.51-0.41,1.01-0.86,1.54-1.25c0.52-0.4,1.06-0.8,1.61-1.16
					c1.09-0.73,2.23-1.34,3.37-1.82c1.15-0.47,2.31-0.75,3.44-0.76c1.13-0.01,2.22,0.25,3.24,0.82c0.68,0.38,1.31,0.9,1.89,1.52
					c-0.93-1.54-2.11-2.88-3.49-3.65c-1.02-0.57-2.12-0.83-3.24-0.82c-1.13,0.01-2.29,0.3-3.44,0.76c-1.14,0.48-2.28,1.09-3.37,1.82
					c-0.55,0.35-1.09,0.75-1.61,1.16c-0.54,0.38-1.03,0.83-1.54,1.25c-0.99,0.89-1.94,1.8-2.82,2.8c-0.46,0.48-0.87,1.01-1.3,1.51
					c-0.41,0.53-0.82,1.05-1.2,1.59c-1.56,2.16-2.91,4.48-4.03,6.92c-1.15,2.42-2.04,4.96-2.74,7.53c-0.19,0.64-0.32,1.29-0.48,1.94
					c-0.13,0.65-0.28,1.3-0.38,1.96c-0.24,1.31-0.39,2.62-0.52,3.93c-0.19,2.62-0.15,5.23,0.23,7.74
					C381.35,146.04,381.6,147.27,381.99,148.43z"/>
				<path class="st1" d="M414.57,131.38c-0.56,1.89-1.27,3.73-2.09,5.54c-0.4,2.06-0.79,4.11-1.18,6.15
					c-0.9,4.79-1.76,9.58-2.29,14.26c-0.26,2.33-0.41,4.65-0.37,6.82c0.03,1.08,0.11,2.12,0.29,3.04c0.16,0.91,0.43,1.7,0.69,2.12
					c0.13,0.21,0.24,0.33,0.31,0.38c0.08,0.06,0.13,0.08,0.25,0.12c0.13,0.03,0.28,0.06,0.46,0.06c-0.04-0.18-0.08-0.36-0.12-0.55
					c-0.18-0.91-0.26-1.96-0.29-3.04c-0.04-2.17,0.11-4.49,0.37-6.82c0.53-4.68,1.38-9.46,2.29-14.26c0.39-2.04,0.78-4.1,1.18-6.15
					c0.82-1.8,1.53-3.65,2.09-5.54c1.75-5.84,2.22-11.97,1.42-17.82l-1.38-0.1C416.66,120.82,416.11,126.22,414.57,131.38z"/>
				<path class="st1" d="M412.52,105.89c0.35,0.71,0.64,1.44,0.88,2.17c0.24,0.75,0.42,1.46,0.54,2.28l-1.19,0.26
					c0.42,0.72,0.8,1.48,1.09,2.25l1.7-0.37c-0.12-0.82-0.3-1.53-0.54-2.28c-0.24-0.74-0.53-1.46-0.88-2.17
					c-0.52-1.02-1.18-2.01-2.02-2.9C412.24,105.38,412.39,105.63,412.52,105.89z"/>
				<path class="st1" d="M440.55,132.71c-0.12,0.26-0.26,0.52-0.39,0.78c-0.36,1.67-0.81,3.3-1.28,4.94
					c-0.7,2.41-1.5,4.79-2.37,7.14c-1.74,4.71-3.75,9.32-6.14,13.81c-2.43,4.48-5.1,8.88-8.93,12.91c-0.98,1-2.02,1.98-3.26,2.88
					c-1.24,0.89-2.66,1.73-4.43,2.28c-1.75,0.55-3.95,0.7-6.02,0.04c-1.05-0.33-2.11-0.9-2.97-1.64c-0.19-0.16-0.37-0.33-0.54-0.51
					c0.04,0.06,0.07,0.13,0.1,0.19c0.5,0.85,1.17,1.71,2.04,2.45c0.86,0.74,1.92,1.31,2.97,1.64c2.07,0.66,4.27,0.51,6.02-0.04
					c1.78-0.54,3.19-1.39,4.43-2.28c1.24-0.9,2.29-1.88,3.26-2.88c3.83-4.02,6.5-8.43,8.93-12.91c2.39-4.49,4.4-9.11,6.14-13.81
					c0.87-2.35,1.66-4.73,2.37-7.14c0.69-2.42,1.36-4.81,1.74-7.39L440.55,132.71z"/>
				<path class="st1" d="M402.61,150.62c-1.22,1.12-2.52,2.17-3.9,3.14c-2.64,1.8-5.55,3.37-8.95,4.21
					c-1.7,0.41-3.53,0.66-5.52,0.47c-1.96-0.16-4.17-0.88-5.98-2.35c-0.31-0.25-0.6-0.53-0.88-0.82c0.08,0.13,0.15,0.26,0.23,0.39
					c0.59,0.94,1.36,1.83,2.25,2.56c1.81,1.47,4.01,2.18,5.98,2.35c1.99,0.18,3.82-0.06,5.52-0.47c3.4-0.84,6.31-2.41,8.95-4.21
					c0.5-0.35,0.98-0.72,1.46-1.09C402.02,153.39,402.3,152,402.61,150.62z"/>
			</g>
		</g>
		<g>
			<g>
				<path class="st0" d="M215.84,168.73c0.07,0.53,0.11,0.96,0.15,1.43c0.04,0.46,0.07,0.92,0.09,1.38
					c0.05,0.92,0.08,1.83,0.09,2.74c0.02,1.82-0.01,3.63-0.13,5.44c-0.21,3.61-0.66,7.21-1.37,10.75
					c-1.38,7.09-3.79,13.96-7.14,20.33c-1.65,3.2-3.63,6.21-5.76,9.09l-1.64,2.13l-1.75,2.04c-0.29,0.34-0.58,0.68-0.88,1.01
					l-0.93,0.97c-0.62,0.64-1.23,1.3-1.87,1.92c-5.14,4.96-10.96,9.16-17.17,12.56l-0.27-0.46c6.03-3.65,11.58-8.05,16.39-13.13
					c0.6-0.64,1.16-1.31,1.74-1.96l0.86-0.98c0.28-0.33,0.54-0.68,0.81-1.02l1.61-2.06l1.5-2.14c1.94-2.89,3.72-5.89,5.18-9.04
					c2.95-6.28,4.98-12.98,5.99-19.82c0.52-3.42,0.8-6.87,0.85-10.31c0.04-1.72-0.01-3.44-0.11-5.16c-0.05-0.86-0.11-1.71-0.2-2.55
					c-0.04-0.42-0.09-0.84-0.14-1.26c-0.05-0.41-0.12-0.85-0.18-1.2L215.84,168.73z"/>
				<path class="st1" d="M216.17,174.28c-0.01-0.91-0.04-1.82-0.09-2.74c-0.02-0.46-0.06-0.92-0.09-1.38
					c-0.04-0.47-0.08-0.91-0.15-1.43l-1.39,0.22c0.05,0.43,0.09,0.81,0.12,1.21c0.04,0.46,0.07,0.92,0.09,1.38
					c0.05,0.92,0.08,1.83,0.09,2.74c0.02,1.82-0.01,3.63-0.13,5.44c-0.21,3.61-0.66,7.21-1.37,10.75
					c-1.38,7.09-3.79,13.96-7.14,20.33c-1.65,3.2-3.63,6.21-5.76,9.09l-1.64,2.13l-1.75,2.04c-0.29,0.34-0.58,0.68-0.88,1.01
					l-0.93,0.97c-0.62,0.64-1.23,1.3-1.87,1.92c-3.53,3.41-7.38,6.44-11.46,9.12c-1.49,1.04-3.01,2.03-4.56,2.98l0.27,0.46
					c6.22-3.4,12.04-7.6,17.17-12.56c0.64-0.62,1.24-1.28,1.87-1.92l0.93-0.97c0.3-0.33,0.59-0.67,0.88-1.01l1.75-2.04l1.64-2.13
					c2.12-2.88,4.1-5.89,5.76-9.09c3.34-6.36,5.76-13.24,7.14-20.33c0.7-3.54,1.16-7.13,1.37-10.75
					C216.16,177.91,216.19,176.1,216.17,174.28z"/>
			</g>
			<g>
				<path class="st0" d="M218.67,86.45c2.87,1.45,5.91,2.47,8.97,2.82c1.53,0.19,3.06,0.2,4.56,0.06c1.5-0.14,2.96-0.47,4.34-0.95
					c1.39-0.48,2.69-1.16,3.88-1.94c1.18-0.82,2.25-1.77,3.15-2.84c1.82-2.15,2.96-4.77,3.33-7.53c0.41-2.76,0.03-5.63-0.86-8.39
					c-0.9-2.76-2.34-5.41-4.09-7.89c-1.77-2.47-3.82-4.8-6.09-6.94l-0.84-0.79c-0.26-0.23-0.51-0.47-0.79-0.68
					c-0.54-0.45-1.12-0.86-1.72-1.26c-1.21-0.78-2.5-1.49-3.86-2.1c-2.73-1.22-5.68-2.11-8.71-2.72c-3.04-0.6-6.17-0.93-9.32-0.96
					c-6.29-0.08-12.72,0.99-18.58,3.56c-2.92,1.29-5.68,2.99-8.1,5.08c-2.43,2.09-4.51,4.59-6.1,7.39
					c-0.81,1.39-1.47,2.86-2.02,4.37c-0.55,1.51-0.99,3.06-1.24,4.63c-0.51,3.13-0.32,6.35,0.43,9.44c0.74,3.1,2.01,6.07,3.53,8.91
					c1.54,2.83,3.32,5.55,5.24,8.17c3.86,5.25,8.22,10.15,12.65,15.03c4.41,4.9,8.96,9.72,13.33,14.79
					c4.36,5.07,8.63,10.33,12.38,16.11c3.73,5.76,6.98,12.1,9,19.02c1.99,6.88,2.88,14.01,2.86,21.09
					c-0.02,7.09-0.9,14.14-2.46,21.02c-1.57,6.89-3.71,13.66-6.46,20.25c-1.39,3.29-2.92,6.54-4.67,9.69
					c-1.75,3.15-3.66,6.24-5.83,9.17c-4.3,5.89-9.51,11.21-15.49,15.68c-5.97,4.47-12.7,8.13-19.93,10.48
					c-3.66,1.17-7.21,2.04-10.93,2.63c-3.7,0.58-7.47,0.9-11.27,0.84c-7.58-0.14-15.35-1.67-22.42-5.19
					c-3.52-1.76-6.85-4.01-9.75-6.77c-2.9-2.75-5.41-5.97-7.24-9.54c-1.84-3.56-3.04-7.42-3.54-11.31
					c-0.25-1.94-0.32-3.89-0.23-5.81c0.08-1.92,0.3-3.81,0.69-5.65c0.74-3.68,1.98-7.16,3.52-10.42c1.53-3.26,3.38-6.29,5.35-9.17
					c1-1.43,2.02-2.83,3.1-4.19c0.54-0.67,1.07-1.36,1.63-2.01l0.83-0.99l0.87-0.98c2.34-2.61,4.91-4.97,7.61-7.1
					c2.7-2.14,5.51-4.07,8.4-5.85c2.88-1.79,5.83-3.43,8.82-4.96c12-6.07,24.49-10.69,37.04-14.92
					c12.54-4.26,25.16-8.14,37.53-12.61c6.18-2.23,12.3-4.63,18.15-7.52c2.92-1.44,5.76-3.04,8.44-4.85
					c1.32-0.92,2.63-1.87,3.83-2.93c0.31-0.25,0.59-0.53,0.89-0.8c0.3-0.27,0.59-0.54,0.86-0.83c0.27-0.29,0.57-0.56,0.82-0.86
					c0.26-0.3,0.54-0.58,0.89-0.81l1.36,1.08c-0.38,0.79-1,1.4-1.58,2.03c-0.29,0.32-0.59,0.62-0.9,0.91
					c-0.31,0.29-0.6,0.6-0.93,0.88c-1.25,1.16-2.59,2.19-3.95,3.19c-2.75,1.96-5.63,3.68-8.59,5.24c-5.92,3.12-12.06,5.7-18.23,8.12
					c-12.38,4.79-24.95,8.88-37.31,13.42c-6.18,2.27-12.32,4.63-18.35,7.2c-3.01,1.28-6,2.62-8.95,4.02
					c-2.94,1.41-5.83,2.91-8.66,4.49c-2.83,1.59-5.59,3.26-8.25,5.06c-2.65,1.81-5.2,3.75-7.59,5.83c-2.39,2.08-4.6,4.32-6.55,6.72
					c-1.96,2.42-3.79,5.05-5.3,7.76c-3.01,5.45-4.89,11.42-5.13,17.16c-0.14,2.87,0.15,5.65,0.75,8.27
					c0.65,2.62,1.69,5.06,3.12,7.24c2.85,4.37,7.25,7.57,12.27,9.4c5.03,1.85,10.64,2.38,16.23,1.87c2.8-0.23,5.61-0.72,8.39-1.43
					c2.76-0.69,5.59-1.6,8.14-2.66c5.19-2.15,10.08-5.09,14.6-8.63c4.51-3.56,8.68-7.67,12.6-12.11c3.89-4.46,7.57-9.29,10.7-14.52
					c6.35-10.44,10.23-22.52,11.4-34.72c0.59-6.11,0.42-12.27-0.7-18.23c-1.11-5.93-3.39-11.74-6.31-17.37
					c-2.94-5.62-6.47-11.06-10.3-16.34c-3.83-5.29-7.89-10.48-11.98-15.69c-2.04-2.61-4.07-5.24-6.05-7.92
					c-1.98-2.68-3.94-5.38-5.76-8.2c-1.83-2.81-3.54-5.71-5-8.77c-1.44-3.05-2.67-6.25-3.33-9.62c-0.67-3.35-0.77-6.86-0.1-10.23
					c0.69-3.38,1.95-6.52,3.6-9.49c1.67-2.95,3.78-5.65,6.23-8.01c1.23-1.18,2.54-2.27,3.91-3.28c1.38-1,2.81-1.93,4.3-2.77
					c5.96-3.36,12.68-5.34,19.57-6.04c3.45-0.33,6.95-0.33,10.43,0.09c1.74,0.21,3.49,0.51,5.21,0.94c1.72,0.43,3.44,0.95,5.12,1.64
					c1.67,0.69,3.33,1.5,4.9,2.5c0.78,0.51,1.56,1.04,2.29,1.64c0.38,0.29,0.73,0.61,1.09,0.92c0.34,0.31,0.64,0.6,0.96,0.91
					c1.26,1.2,2.47,2.46,3.62,3.8c1.15,1.33,2.25,2.72,3.25,4.2c2,2.95,3.69,6.2,4.72,9.77c1.04,3.54,1.36,7.42,0.63,11.18
					c-0.36,1.88-1.01,3.71-1.88,5.41c-0.89,1.7-2.02,3.27-3.35,4.62c-2.65,2.73-6.07,4.59-9.63,5.45c-1.78,0.44-3.61,0.64-5.41,0.61
					c-1.8-0.02-3.58-0.26-5.3-0.7c-1.71-0.44-3.36-1.06-4.92-1.81c-1.55-0.77-3.02-1.67-4.38-2.71L218.67,86.45z"/>
				<g>
					<path class="st1" d="M126.4,242.08c0.5,0.76,1.04,1.48,1.63,2.17c-0.01-0.01-0.02-0.03-0.03-0.04
						c-1.43-2.18-2.47-4.62-3.12-7.24c-0.61-2.62-0.9-5.41-0.75-8.27c0.24-5.74,2.12-11.71,5.13-17.16c1.51-2.72,3.34-5.34,5.3-7.76
						c1.96-2.4,4.16-4.64,6.55-6.72c2.39-2.08,4.94-4.01,7.59-5.83c2.66-1.8,5.43-3.48,8.25-5.06c2.83-1.58,5.72-3.08,8.66-4.49
						c2.94-1.4,5.93-2.74,8.95-4.02c6.03-2.57,12.17-4.92,18.35-7.2c8.97-3.29,18.04-6.36,27.07-9.61
						c-0.16-0.84-0.35-1.68-0.55-2.51c-9.38,3.4-18.8,6.57-28.12,9.99c-6.18,2.27-12.32,4.63-18.35,7.2c-3.01,1.28-6,2.62-8.95,4.02
						c-2.94,1.41-5.83,2.91-8.66,4.49c-2.83,1.59-5.59,3.26-8.25,5.06c-2.65,1.81-5.2,3.75-7.59,5.83c-2.39,2.08-4.6,4.32-6.55,6.72
						c-1.96,2.42-3.79,5.05-5.3,7.76c-3.01,5.45-4.89,11.42-5.13,17.16c-0.14,2.87,0.15,5.65,0.75,8.27
						C123.93,237.46,124.97,239.91,126.4,242.08z"/>
					<path class="st1" d="M182.63,51.53c-2.45,2.36-4.56,5.06-6.23,8.01c-1.65,2.97-2.91,6.12-3.6,9.49
						c-0.02,0.08-0.03,0.16-0.04,0.24c-0.17,2.47,0.07,4.97,0.65,7.39c0.74,3.1,2.01,6.07,3.53,8.91c1.54,2.83,3.32,5.55,5.24,8.17
						c0.49,0.66,0.98,1.32,1.49,1.98c-1.88-2.57-3.62-5.24-5.13-8.01c-1.51-2.84-2.79-5.81-3.53-8.91
						c-0.75-3.09-0.93-6.31-0.43-9.44c0.24-1.56,0.68-3.11,1.24-4.63c0.55-1.51,1.21-2.98,2.02-4.37c1.59-2.79,3.67-5.3,6.1-7.39
						c2.42-2.1,5.18-3.79,8.1-5.08c5.86-2.58,12.28-3.64,18.58-3.56c3.15,0.04,6.28,0.36,9.32,0.96c3.04,0.61,5.99,1.5,8.71,2.72
						c1.36,0.61,2.65,1.33,3.86,2.1c0.59,0.4,1.18,0.81,1.72,1.26c0.28,0.22,0.53,0.45,0.79,0.68l0.84,0.79
						c1.68,1.58,3.24,3.27,4.65,5.04c-0.05-0.08-0.1-0.16-0.16-0.23c-1.77-2.47-3.82-4.8-6.09-6.94l-0.84-0.79
						c-0.26-0.23-0.51-0.47-0.79-0.68c-0.54-0.45-1.12-0.86-1.72-1.26c-1.21-0.78-2.5-1.49-3.86-2.1c-2.73-1.22-5.68-2.11-8.71-2.72
						c-3.04-0.6-6.17-0.93-9.32-0.96c-6.29-0.08-12.72,0.99-18.58,3.56c-0.1,0.05-0.2,0.1-0.31,0.14c-1.24,0.73-2.44,1.51-3.6,2.36
						C185.17,49.27,183.86,50.35,182.63,51.53z"/>
					<path class="st1" d="M193.04,113.77c2.75,3.49,5.48,6.99,8.14,10.5c-3.16-4.24-6.43-8.44-9.74-12.64
						c-1.61-2.06-3.21-4.14-4.79-6.24c0.11,0.15,0.23,0.31,0.34,0.46C188.96,108.53,191,111.16,193.04,113.77z"/>
					<path class="st1" d="M263.04,135.6c-0.35,0.23-0.62,0.51-0.89,0.81c-0.26,0.3-0.55,0.57-0.82,0.86
						c-0.27,0.29-0.56,0.56-0.86,0.83c-0.3,0.27-0.58,0.55-0.89,0.8c-1.2,1.06-2.51,2.01-3.83,2.93c-2.68,1.81-5.52,3.41-8.44,4.85
						c-1.18,0.58-2.37,1.14-3.57,1.69c-4.94,2.43-10.01,4.54-15.11,6.54c-0.1,0.04-0.2,0.08-0.3,0.12c0.44,1.21,0.85,2.43,1.22,3.67
						c1.99,6.88,2.88,14.01,2.86,21.09c-0.02,7.09-0.9,14.14-2.46,21.02c-1.57,6.89-3.71,13.66-6.46,20.25
						c-1.39,3.29-2.92,6.54-4.67,9.69c-1.75,3.15-3.66,6.24-5.83,9.17c-4.3,5.89-9.51,11.21-15.49,15.68
						c-5.97,4.47-12.7,8.13-19.93,10.48c-3.66,1.17-7.21,2.04-10.93,2.63c-3.7,0.58-7.47,0.9-11.27,0.84
						c-7.58-0.14-15.35-1.67-22.42-5.19c-3.52-1.76-6.85-4.01-9.75-6.77c-1.22-1.16-2.36-2.4-3.42-3.71
						c1.46,2.12,3.16,4.08,5.02,5.84c2.9,2.76,6.23,5.01,9.75,6.77c7.07,3.52,14.83,5.06,22.42,5.19c3.8,0.06,7.57-0.26,11.27-0.84
						c3.71-0.59,7.27-1.45,10.93-2.63c7.23-2.35,13.97-6.01,19.93-10.48c5.98-4.47,11.2-9.8,15.49-15.68
						c2.17-2.93,4.08-6.02,5.83-9.17c1.75-3.15,3.28-6.4,4.67-9.69c2.75-6.59,4.89-13.37,6.46-20.25
						c1.56-6.89,2.44-13.94,2.46-21.02c0.02-7.08-0.87-14.21-2.86-21.09c-0.36-1.25-0.78-2.47-1.22-3.67c0.1-0.04,0.2-0.08,0.3-0.12
						c6.18-2.42,12.32-5,18.23-8.12c2.96-1.56,5.84-3.28,8.59-5.24c1.36-1,2.7-2.03,3.95-3.19c0.32-0.27,0.62-0.59,0.93-0.88
						c0.31-0.29,0.61-0.59,0.9-0.91c0.57-0.63,1.2-1.24,1.58-2.03L263.04,135.6z"/>
					<path class="st1" d="M216.89,134.42c1.26,1.71,2.48,3.46,3.65,5.26c2.53,3.91,4.83,8.08,6.68,12.52
						c0.11-0.04,0.23-0.08,0.34-0.12c0.08-0.03,0.15-0.06,0.23-0.08c-1.65-3.57-3.57-6.97-5.65-10.18
						C220.48,139.26,218.71,136.8,216.89,134.42z"/>
					<path class="st1" d="M245.67,53.96c2,2.95,3.69,6.2,4.72,9.77c1.04,3.54,1.36,7.42,0.63,11.18c-0.36,1.88-1.01,3.71-1.88,5.41
						c-0.89,1.7-2.02,3.27-3.35,4.62c-2.65,2.73-6.07,4.59-9.63,5.45c-1.78,0.44-3.61,0.64-5.41,0.61c-1.8-0.02-3.58-0.26-5.3-0.7
						c-1.71-0.44-3.36-1.06-4.92-1.81c-0.8-0.4-1.58-0.83-2.33-1.29l-0.45,0.72c1.35,1.03,2.83,1.94,4.38,2.71
						c1.56,0.76,3.21,1.37,4.92,1.81c1.71,0.43,3.5,0.68,5.3,0.7c1.8,0.03,3.63-0.17,5.41-0.61c3.57-0.86,6.98-2.72,9.63-5.45
						c1.33-1.35,2.46-2.92,3.35-4.62c0.87-1.71,1.52-3.53,1.88-5.41c0.73-3.76,0.41-7.64-0.63-11.18c-1.02-3.56-2.71-6.82-4.72-9.77
						c-0.63-0.93-1.29-1.82-1.99-2.69C245.41,53.59,245.55,53.77,245.67,53.96z"/>
				</g>
			</g>
			<g>
				<path class="st0" d="M0,11.45l1.86-0.51l1.92-0.51l3.85-0.97c2.56-0.64,5.14-1.21,7.72-1.78c5.16-1.13,10.34-2.12,15.54-3.01
					c5.2-0.9,10.43-1.67,15.68-2.31c5.25-0.65,10.51-1.19,15.79-1.59c5.28-0.39,10.58-0.63,15.89-0.73
					c5.31-0.11,10.64-0.03,15.96,0.25c10.64,0.58,21.34,1.86,31.83,4.53c5.24,1.36,10.43,3,15.47,5.13c2.53,1.04,5,2.25,7.44,3.52
					c1.2,0.67,2.42,1.32,3.59,2.05c0.58,0.36,1.2,0.71,1.75,1.08l1.67,1.09c8.91,5.79,17.33,12.43,24.93,19.92
					c3.8,3.74,7.38,7.71,10.73,11.84c3.34,4.15,6.44,8.45,9.32,12.87c2.91,4.4,5.54,8.94,8.37,13.29c1.41,2.17,2.91,4.28,4.56,6.24
					c0.82,0.98,1.69,1.92,2.63,2.78c0.93,0.86,1.91,1.67,2.95,2.38l-1.02,1.45c-1.09-0.8-2.13-1.65-3.11-2.57
					c-0.98-0.92-1.9-1.88-2.79-2.88c-1.77-1.99-3.35-4.12-4.9-6.24l-4.58-6.38c-1.53-2.11-3.08-4.2-4.67-6.24
					c-3.2-4.07-6.6-7.96-10.24-11.59c-3.63-3.64-7.48-7.03-11.46-10.25c-7.98-6.43-16.5-12.14-25.22-17.54
					c-2.23-1.36-4.28-2.57-6.49-3.72c-2.21-1.1-4.45-2.16-6.77-3.07c-4.61-1.86-9.43-3.31-14.32-4.49
					c-4.91-1.14-9.89-2.06-14.92-2.71c-5.04-0.65-10.12-1.1-15.23-1.33c-10.21-0.47-20.5-0.33-30.77,0.37
					c-5.14,0.33-10.27,0.76-15.4,1.32c-2.56,0.28-5.13,0.58-7.69,0.91c-2.56,0.32-5.12,0.66-7.68,1.03
					c-5.11,0.74-10.21,1.58-15.3,2.49c-2.54,0.45-5.08,0.95-7.61,1.44l-3.79,0.77l-1.89,0.4l-1.94,0.43L0,11.45z"/>
				<path class="st1" d="M216.41,85.36c-0.98-0.92-1.9-1.88-2.79-2.88c-1.77-1.99-3.35-4.12-4.9-6.24l-4.58-6.38
					c-1.53-2.11-3.08-4.2-4.67-6.24c-3.2-4.07-6.6-7.96-10.24-11.59c-3.63-3.64-7.48-7.03-11.46-10.25
					c-7.98-6.43-16.5-12.14-25.22-17.54c-2.23-1.36-4.28-2.57-6.49-3.72c-2.21-1.1-4.45-2.16-6.77-3.07
					c-4.61-1.86-9.43-3.31-14.32-4.49c-4.91-1.14-9.89-2.06-14.92-2.71c-5.04-0.65-10.12-1.1-15.23-1.33
					c-10.21-0.47-20.5-0.33-30.77,0.37c-5.14,0.33-10.27,0.76-15.4,1.32c-2.56,0.28-5.13,0.58-7.69,0.91
					c-2.56,0.32-5.12,0.66-7.68,1.03c-5.11,0.74-10.21,1.58-15.3,2.49c-2.54,0.45-5.08,0.95-7.61,1.44l-3.79,0.77l-1.89,0.4
					l-1.94,0.43l-1.63-6.94L0,11.45l1.68,7.16l1.94-0.43l1.89-0.4L9.3,17c2.53-0.49,5.07-0.99,7.61-1.44
					c5.09-0.91,10.19-1.74,15.3-2.49c2.56-0.37,5.12-0.71,7.68-1.03c2.56-0.33,5.12-0.63,7.69-0.91c5.13-0.56,10.27-0.99,15.4-1.32
					c10.27-0.7,20.56-0.84,30.77-0.37c5.11,0.23,10.19,0.68,15.23,1.33c5.04,0.66,10.02,1.57,14.92,2.71
					c4.89,1.19,9.7,2.63,14.32,4.49c2.32,0.9,4.56,1.97,6.77,3.07c2.21,1.15,4.25,2.36,6.49,3.72c8.72,5.4,17.24,11.11,25.22,17.54
					c3.98,3.22,7.83,6.62,11.46,10.25c3.64,3.63,7.04,7.51,10.24,11.59c1.59,2.04,3.14,4.13,4.67,6.24l4.58,6.38
					c1.55,2.12,3.13,4.25,4.9,6.24c0.89,0.99,1.82,1.95,2.79,2.88c0.98,0.92,2.02,1.77,3.11,2.57l0.62-0.88
					C218.15,86.88,217.25,86.14,216.41,85.36z"/>
			</g>
		</g>
	</g>
	<g>
		<g>
			<g>
				<path class="st0" d="M457.24,94.61c2.37,1.77,5.47,1.97,8.34,1.36c2.9-0.6,5.67-1.92,8.08-3.65c2.42-1.72,4.51-3.88,6.05-6.29
					c1.53-2.42,2.47-5.1,2.67-7.81c0.09-1.36,0.01-2.72-0.23-4.06c-0.25-1.35-0.68-2.67-1.24-3.97c-1.11-2.6-2.79-5.03-4.75-7.28
					c-0.48-0.57-1.01-1.11-1.53-1.66l-0.81-0.8c-0.13-0.12-0.29-0.29-0.39-0.38l-0.33-0.3c-0.93-0.8-2.12-1.51-3.39-2.12
					c-1.28-0.62-2.66-1.15-4.09-1.6c-1.43-0.46-2.9-0.83-4.4-1.14c-6-1.24-12.35-1.57-18.6-0.91c-6.23,0.7-12.49,2.44-17.81,5.89
					c-1.32,0.87-2.58,1.83-3.75,2.89c-1.16,1.07-2.24,2.23-3.2,3.49c-0.95,1.26-1.79,2.61-2.5,4.02c-0.7,1.42-1.27,2.9-1.71,4.42
					c-0.89,3.02-1.12,6.19-0.72,9.3c0.4,3.11,1.39,6.13,2.69,9.02c2.66,5.77,6.48,10.99,10.55,15.98c4.09,4.99,8.51,9.74,12.9,14.58
					c4.42,4.81,8.84,9.67,13.04,14.82c4.21,5.14,8.2,10.58,11.56,16.59c1.66,3.01,3.18,6.15,4.42,9.45c1.26,3.3,2.2,6.72,2.9,10.18
					c1.36,6.92,1.71,13.98,1.2,20.95c-0.48,6.98-1.8,13.86-3.7,20.57c-0.96,3.36-2,6.7-3.26,9.98c-1.22,3.29-2.61,6.53-4.15,9.72
					c-1.54,3.18-3.29,6.28-5.18,9.31c-1.92,3.01-4.04,5.91-6.36,8.67c-4.64,5.52-10.12,10.41-16.24,14.49
					c-3.05,2.04-6.28,3.86-9.65,5.43c-1.68,0.79-3.4,1.49-5.14,2.15c-1.75,0.62-3.52,1.22-5.31,1.71c-1.78,0.51-3.59,0.93-5.41,1.31
					c-1.83,0.33-3.67,0.64-5.54,0.83c-3.72,0.42-7.5,0.48-11.28,0.16c-7.54-0.63-15.12-2.81-21.76-6.94
					c-3.31-2.06-6.37-4.61-8.94-7.62c-2.59-2.98-4.7-6.42-6.12-10.1c-1.44-3.67-2.2-7.57-2.29-11.39c-0.1-3.83,0.47-7.58,1.49-11.1
					c0.51-1.76,1.1-3.47,1.81-5.12c0.68-1.66,1.47-3.25,2.31-4.79c0.42-0.77,0.84-1.54,1.29-2.29c0.44-0.76,0.91-1.49,1.38-2.21
					c0.93-1.46,1.93-2.86,2.94-4.25c2.06-2.75,4.15-5.36,6.58-7.87c2.4-2.47,4.99-4.71,7.7-6.74c5.42-4.05,11.22-7.4,17.15-10.36
					c11.88-5.87,24.23-10.37,36.61-14.54c12.37-4.19,24.83-8.03,37.02-12.46c6.09-2.22,12.12-4.6,17.89-7.46
					c2.88-1.43,5.67-3.02,8.31-4.81c1.3-0.91,2.59-1.86,3.77-2.9c0.31-0.25,0.58-0.53,0.88-0.79c0.29-0.26,0.58-0.54,0.85-0.82
					c0.27-0.29,0.56-0.55,0.81-0.85c0.26-0.29,0.53-0.57,0.88-0.8l1.36,1.08c-0.37,0.78-0.98,1.38-1.55,2
					c-0.28,0.32-0.58,0.61-0.88,0.9c-0.3,0.29-0.59,0.6-0.91,0.87c-1.23,1.14-2.55,2.16-3.89,3.15c-2.71,1.94-5.55,3.65-8.46,5.19
					c-5.83,3.09-11.88,5.66-17.97,8.05c-12.21,4.75-24.61,8.8-36.82,13.26c-6.1,2.24-12.16,4.55-18.13,7.05
					c-5.96,2.5-11.84,5.19-17.46,8.27c-5.62,3.07-11.03,6.48-15.86,10.49c-2.41,2-4.67,4.15-6.7,6.45c-2,2.27-3.89,4.84-5.53,7.46
					c-1.64,2.63-2.98,5.4-4.06,8.22c-1.05,2.83-1.78,5.72-2.13,8.57c-0.2,1.43-0.25,2.84-0.24,4.24c-0.01,1.39,0.11,2.76,0.31,4.1
					c0.37,2.67,1.18,5.2,2.35,7.5c2.33,4.61,6.3,8.22,11.04,10.46c4.74,2.27,10.17,3.26,15.64,3.11c1.37-0.05,2.74-0.12,4.11-0.3
					c0.68-0.06,1.37-0.18,2.05-0.27c0.68-0.13,1.37-0.22,2.05-0.38c2.72-0.55,5.42-1.34,8.07-2.31c2.64-0.97,5.17-2.14,7.65-3.48
					c2.47-1.33,4.87-2.83,7.18-4.49c1.16-0.82,2.29-1.69,3.4-2.58c1.1-0.91,2.2-1.83,3.27-2.79c2.14-1.93,4.22-3.93,6.22-6.06
					c4-4.24,7.78-8.82,11.16-13.77c1.68-2.48,3.25-5.05,4.7-7.71c1.42-2.67,2.73-5.4,3.85-8.22c1.13-2.81,2.07-5.7,2.89-8.63
					c0.81-2.92,1.46-5.89,1.94-8.88c0.96-5.98,1.26-12.05,0.67-18.03c-0.31-2.98-0.82-5.94-1.61-8.82c-0.77-2.9-1.83-5.76-3.06-8.59
					c-2.49-5.65-5.71-11.12-9.28-16.43c-3.58-5.31-7.52-10.45-11.5-15.6c-4.02-5.12-8.09-10.26-11.94-15.6
					c-3.83-5.35-7.5-10.93-10.03-17.15c-1.25-3.11-2.16-6.39-2.47-9.76c-0.32-3.37,0.07-6.82,1.11-10.02c0.5-1.6,1.13-3.16,1.9-4.65
					c0.74-1.5,1.62-2.94,2.62-4.29c0.99-1.36,2.08-2.64,3.28-3.81c1.18-1.19,2.46-2.29,3.81-3.29c5.4-4.03,11.75-6.67,18.33-8.19
					c6.59-1.51,13.46-1.96,20.32-1.03c1.71,0.25,3.42,0.58,5.13,1.02c1.7,0.46,3.4,1.04,5.08,1.78c1.67,0.77,3.32,1.71,4.89,3.01
					l0.58,0.51c0.2,0.18,0.32,0.31,0.49,0.47l0.92,0.92c0.6,0.64,1.2,1.27,1.77,1.95c2.31,2.65,4.32,5.7,5.7,9.13
					c0.68,1.72,1.19,3.53,1.47,5.4c0.27,1.87,0.3,3.79,0.06,5.68c-0.45,3.79-2.02,7.34-4.2,10.27c-2.2,2.93-4.97,5.3-8.06,7.05
					c-3.08,1.74-6.51,2.92-10.08,3.15c-1.78,0.12-3.61-0.05-5.36-0.56c-1.74-0.53-3.39-1.5-4.59-2.87L457.24,94.61z"/>
				<g>
					<path class="st1" d="M455.28,142.41c2.44,3.31,4.73,6.78,6.79,10.45c1.31,2.38,2.53,4.84,3.6,7.4c0.19-0.07,0.38-0.13,0.57-0.2
						c-0.8-1.73-1.66-3.41-2.57-5.06C461.17,150.52,458.32,146.36,455.28,142.41z"/>
					<path class="st1" d="M439.75,132.49c-1.97-2.64-3.99-5.27-6.02-7.89c-2.72-3.46-5.45-6.93-8.13-10.47
						c3.18,4.28,6.47,8.45,9.73,12.6C436.81,128.65,438.29,130.57,439.75,132.49z"/>
					<path class="st1" d="M419.79,61.45c-1.2,1.18-2.29,2.46-3.28,3.81c-1,1.35-1.88,2.79-2.62,4.29c-0.76,1.49-1.4,3.05-1.9,4.65
						c-0.34,1.04-0.6,2.11-0.8,3.2c-0.1,1.49-0.06,2.99,0.13,4.47c0.4,3.11,1.39,6.13,2.69,9.02c2.1,4.55,4.93,8.76,8.03,12.79
						c-2.46-3.38-4.69-6.9-6.42-10.66c-1.3-2.89-2.29-5.91-2.69-9.02c-0.4-3.11-0.17-6.28,0.72-9.3c0.45-1.52,1.02-3,1.71-4.42
						c0.71-1.41,1.55-2.76,2.5-4.02c0.96-1.25,2.04-2.42,3.2-3.49c1.17-1.06,2.43-2.02,3.75-2.89c5.32-3.45,11.58-5.19,17.81-5.89
						c6.25-0.67,12.6-0.33,18.6,0.91c1.5,0.31,2.97,0.68,4.4,1.14c1.43,0.44,2.8,0.97,4.09,1.6c1.28,0.61,2.46,1.33,3.39,2.12
						l0.33,0.3c0.11,0.09,0.26,0.25,0.39,0.38l0.81,0.8c0.52,0.55,1.05,1.09,1.53,1.66c0.28,0.32,0.56,0.65,0.82,0.98
						c-0.74-1.07-1.55-2.11-2.43-3.11c-0.48-0.57-1.01-1.11-1.53-1.66l-0.81-0.8c-0.13-0.12-0.29-0.29-0.39-0.38l-0.33-0.3
						c-0.93-0.8-2.12-1.51-3.39-2.12c-1.28-0.62-2.66-1.15-4.09-1.6c-1.43-0.46-2.9-0.83-4.4-1.14c-6-1.24-12.35-1.57-18.6-0.91
						c-4.19,0.47-8.39,1.41-12.32,3.03c-1.77,0.97-3.48,2.05-5.11,3.26C422.25,59.16,420.98,60.26,419.79,61.45z"/>
					<path class="st1" d="M485.21,65.62c0.68,1.72,1.19,3.53,1.47,5.4c0.27,1.87,0.3,3.79,0.06,5.68c-0.45,3.79-2.02,7.34-4.2,10.27
						c-2.2,2.93-4.97,5.3-8.06,7.05c-3.08,1.74-6.51,2.92-10.08,3.15c-1.78,0.12-3.61-0.05-5.36-0.56c-0.9-0.28-1.77-0.67-2.58-1.17
						l-0.42,0.44c1.2,1.36,2.85,2.33,4.59,2.87c1.75,0.51,3.58,0.68,5.36,0.56c3.58-0.23,7-1.41,10.08-3.15
						c3.09-1.75,5.86-4.12,8.06-7.05c2.18-2.93,3.74-6.48,4.2-10.27c0.23-1.89,0.21-3.81-0.06-5.68c-0.28-1.87-0.78-3.69-1.47-5.4
						c-1.21-3-2.9-5.71-4.85-8.11C483.23,61.48,484.34,63.47,485.21,65.62z"/>
					<path class="st1" d="M363.3,248.37c0.77,1.52,1.72,2.94,2.82,4.23c-0.44-0.67-0.85-1.37-1.22-2.09
						c-1.18-2.3-1.98-4.82-2.35-7.5c-0.21-1.33-0.32-2.7-0.31-4.1c0-1.39,0.05-2.81,0.24-4.24c0.36-2.85,1.09-5.74,2.13-8.57
						c1.07-2.82,2.42-5.59,4.06-8.22c1.64-2.62,3.52-5.18,5.53-7.46c2.03-2.3,4.29-4.45,6.7-6.45c4.83-4,10.24-7.42,15.86-10.49
						c5.62-3.08,11.49-5.77,17.46-8.27c5.96-2.5,12.03-4.82,18.13-7.05c8.64-3.16,17.38-6.11,26.08-9.25
						c-0.16-0.84-0.35-1.68-0.55-2.51c-9.04,3.28-18.13,6.35-27.12,9.63c-6.1,2.24-12.16,4.55-18.13,7.05
						c-5.96,2.5-11.84,5.19-17.46,8.27c-5.62,3.07-11.03,6.48-15.86,10.49c-2.41,2-4.67,4.15-6.7,6.45c-2,2.27-3.89,4.84-5.53,7.46
						c-1.64,2.63-2.98,5.4-4.06,8.22c-1.05,2.83-1.78,5.72-2.13,8.57c-0.2,1.43-0.25,2.84-0.24,4.24c-0.01,1.39,0.11,2.76,0.31,4.1
						C361.32,243.55,362.12,246.08,363.3,248.37z"/>
					<path class="st1" d="M501.48,143.65c-0.34,0.23-0.62,0.51-0.88,0.8c-0.25,0.3-0.54,0.57-0.81,0.85
						c-0.27,0.29-0.55,0.56-0.85,0.82c-0.29,0.26-0.57,0.54-0.88,0.79c-1.19,1.04-2.47,1.99-3.77,2.9
						c-2.64,1.79-5.43,3.38-8.31,4.81c-1.27,0.63-2.55,1.24-3.85,1.82c-4.77,2.34-9.66,4.39-14.58,6.33c-0.26,0.1-0.53,0.2-0.79,0.3
						c1.12,3.06,1.97,6.22,2.61,9.4c1.36,6.92,1.71,13.98,1.2,20.95c-0.48,6.98-1.8,13.86-3.7,20.57c-0.96,3.36-2,6.7-3.26,9.98
						c-1.22,3.29-2.61,6.53-4.15,9.72c-1.54,3.18-3.29,6.28-5.18,9.31c-1.92,3.01-4.04,5.91-6.36,8.67
						c-4.64,5.52-10.12,10.41-16.24,14.49c-3.05,2.04-6.28,3.86-9.65,5.43c-1.68,0.79-3.4,1.49-5.14,2.15
						c-1.75,0.62-3.52,1.22-5.31,1.71c-1.78,0.51-3.59,0.93-5.41,1.31c-1.83,0.33-3.67,0.64-5.54,0.83
						c-3.72,0.42-7.5,0.48-11.28,0.16c-7.54-0.63-15.12-2.81-21.76-6.94c-3.31-2.06-6.37-4.61-8.94-7.62
						c-0.25-0.29-0.5-0.59-0.75-0.9c0.73,1.05,1.51,2.07,2.35,3.03c2.57,3.01,5.63,5.56,8.94,7.62c6.64,4.13,14.23,6.31,21.76,6.94
						c3.77,0.32,7.56,0.26,11.28-0.16c1.87-0.19,3.7-0.5,5.54-0.83c1.82-0.37,3.63-0.79,5.41-1.31c1.78-0.49,3.56-1.09,5.31-1.71
						c1.74-0.65,3.46-1.36,5.14-2.15c3.37-1.56,6.59-3.38,9.65-5.43c6.12-4.07,11.61-8.97,16.24-14.49
						c2.32-2.76,4.44-5.66,6.36-8.67c1.89-3.03,3.64-6.12,5.18-9.31c1.54-3.18,2.92-6.43,4.15-9.72c1.26-3.28,2.3-6.62,3.26-9.98
						c1.91-6.72,3.22-13.6,3.7-20.57c0.51-6.97,0.16-14.03-1.2-20.95c-0.65-3.18-1.5-6.34-2.61-9.4c0.26-0.1,0.53-0.2,0.79-0.3
						c6.09-2.4,12.14-4.96,17.97-8.05c2.91-1.54,5.76-3.26,8.46-5.19c1.34-0.99,2.66-2.01,3.89-3.15c0.32-0.27,0.61-0.58,0.91-0.87
						c0.3-0.29,0.6-0.59,0.88-0.9c0.57-0.62,1.18-1.22,1.55-2L501.48,143.65z"/>
				</g>
			</g>
			<g>
				<path class="st0" d="M523.65,140.03c0.8-0.11,1.72-0.34,2.58-0.59c0.87-0.25,1.72-0.56,2.57-0.9c1.69-0.67,3.33-1.5,4.92-2.41
					c1.59-0.91,3.11-1.93,4.57-3.04c1.47-1.09,2.88-2.27,4.23-3.52c5.39-4.99,9.82-10.95,13.47-17.32c1.82-3.19,3.43-6.49,4.94-9.84
					c1.49-3.38,2.92-6.78,4.16-10.24c0.62-1.73,1.21-3.46,1.74-5.2c0.52-1.74,1-3.49,1.41-5.24c0.82-3.5,1.4-7.01,1.49-10.41
					c0.07-3.38-0.38-6.65-1.59-9.18c-0.6-1.27-1.37-2.34-2.3-3.22c-0.47-0.44-0.98-0.84-1.52-1.2c-0.28-0.18-0.56-0.35-0.86-0.51
					c-0.15-0.08-0.29-0.16-0.45-0.23l-0.23-0.11c-0.07-0.04-0.12-0.05-0.19-0.08c-0.98-0.4-2.15-0.6-3.25-0.54
					c-1.11,0.06-2.19,0.33-3.24,0.83c-2.11,0.98-4.12,2.93-5.87,5.36c-0.88,1.21-1.69,2.56-2.44,3.97c-0.76,1.41-1.46,2.9-2.1,4.44
					c-1.28,3.09-2.38,6.35-3.33,9.7c-1.9,6.71-3.29,13.73-4.44,20.85l-1.7,10.96l-1.78,11l-3.59,21.91
					c-0.57,3.64-1.18,7.28-1.7,10.91c-0.26,1.82-0.51,3.63-0.74,5.45c-0.25,1.81-0.47,3.62-0.68,5.43
					c-0.41,3.61-0.73,7.22-0.88,10.78c-0.14,3.55-0.14,7.09,0.28,10.36c0.21,1.62,0.54,3.18,1.01,4.47c0.47,1.3,1.08,2.21,1.6,2.61
					c0.27,0.21,0.54,0.36,0.97,0.45c0.44,0.08,0.96,0.08,1.51-0.02c1.12-0.2,2.45-0.83,3.73-1.72c1.29-0.9,2.56-2.02,3.77-3.25
					c1.21-1.23,2.37-2.58,3.48-3.98c2.22-2.81,4.27-5.84,6.23-8.94c3.91-6.22,7.46-12.76,10.92-19.35
					c3.46-6.6,6.78-13.29,10.29-19.9l1.56,0.76c-5.95,13.66-11.27,27.64-18.33,41.06c-1.78,3.35-3.68,6.67-5.84,9.9
					c-2.2,3.21-4.55,6.41-7.86,9.2c-1.67,1.37-3.62,2.67-6.13,3.41c-1.25,0.36-2.62,0.53-4.03,0.47c-1.43-0.07-2.98-0.49-4.32-1.23
					c-1.35-0.74-2.45-1.74-3.3-2.78c-0.86-1.04-1.5-2.12-2.03-3.18c-1.05-2.13-1.68-4.2-2.18-6.24c-0.98-4.07-1.41-8.01-1.69-11.91
					c-0.27-3.9-0.36-7.76-0.35-11.6c0-1.92,0.03-3.83,0.07-5.74c0.06-1.91,0.13-3.81,0.22-5.71c0.19-3.79,0.4-7.58,0.71-11.34
					c0.6-7.53,1.42-15.02,2.4-22.46c0.47-3.72,1.02-7.43,1.55-11.14l0.86-5.55c0.29-1.85,0.57-3.68,0.91-5.6
					c0.66-3.8,1.42-7.61,2.36-11.39c0.91-3.79,2.02-7.57,3.32-11.34c0.64-1.88,1.38-3.75,2.16-5.61c0.78-1.86,1.63-3.72,2.59-5.55
					c1.91-3.66,4.16-7.28,7.15-10.61c1.48-1.67,3.18-3.25,5.13-4.65c1.94-1.39,4.16-2.6,6.61-3.38c2.45-0.79,5.13-1.12,7.75-0.86
					c2.62,0.27,5.14,1.06,7.45,2.44l0.42,0.26l0.37,0.25c0.25,0.16,0.49,0.34,0.73,0.51c0.48,0.35,0.96,0.73,1.41,1.13
					c0.92,0.8,1.77,1.68,2.54,2.64c1.53,1.92,2.69,4.11,3.4,6.34c0.72,2.23,1.05,4.47,1.13,6.62c0.08,2.16-0.07,4.25-0.36,6.27
					c-0.57,4.04-1.63,7.84-2.91,11.5c-0.64,1.83-1.34,3.62-2.08,5.39c-0.73,1.77-1.5,3.52-2.3,5.24c-1.62,3.44-3.31,6.83-5.11,10.14
					c-1.81,3.32-3.73,6.61-5.85,9.76c-4.22,6.3-9.12,12.19-14.9,17.12c-2.87,2.48-5.99,4.68-9.3,6.54
					c-1.66,0.92-3.38,1.75-5.15,2.46c-0.89,0.35-1.79,0.66-2.71,0.95c-0.93,0.28-1.83,0.52-2.87,0.69L523.65,140.03z"/>
				<g>
					<path class="st1" d="M533.41,134.49l1.68-10.23l1.78-11l1.7-10.96c1.14-7.11,2.54-14.14,4.44-20.85
						c0.95-3.35,2.04-6.62,3.33-9.7c0.64-1.54,1.34-3.03,2.1-4.44c0.75-1.42,1.56-2.76,2.44-3.97c1.75-2.44,3.76-4.38,5.87-5.36
						c1.05-0.5,2.13-0.77,3.24-0.83c1.1-0.06,2.27,0.14,3.25,0.54c0.06,0.03,0.11,0.04,0.19,0.08l0.23,0.11
						c0.16,0.07,0.3,0.16,0.45,0.23c0.3,0.16,0.58,0.33,0.86,0.51c0.55,0.36,1.06,0.76,1.52,1.2c0.1,0.1,0.2,0.21,0.29,0.31
						c-0.53-0.93-1.16-1.74-1.89-2.44c-0.47-0.44-0.98-0.84-1.52-1.2c-0.28-0.18-0.56-0.35-0.86-0.51
						c-0.15-0.08-0.29-0.16-0.45-0.23l-0.23-0.11c-0.07-0.04-0.12-0.05-0.19-0.08c-0.98-0.4-2.15-0.6-3.25-0.54
						c-1.11,0.06-2.19,0.33-3.24,0.83c-2.11,0.98-4.12,2.93-5.87,5.36c-0.88,1.21-1.69,2.56-2.44,3.97c-0.76,1.41-1.46,2.9-2.1,4.44
						c-1.28,3.09-2.38,6.35-3.33,9.7c-1.9,6.71-3.29,13.73-4.44,20.85l-1.7,10.96l-1.78,11l-2.23,13.58c0.5-0.27,1-0.54,1.5-0.82
						C532.97,134.75,533.19,134.62,533.41,134.49z"/>
					<path class="st1" d="M567.79,146.16c-4.66,11.05-9.21,22.19-14.88,32.98c-1.78,3.35-3.68,6.67-5.84,9.9
						c-2.2,3.21-4.55,6.41-7.86,9.2c-1.67,1.37-3.62,2.67-6.13,3.41c-1.25,0.36-2.62,0.53-4.03,0.47c-1.43-0.07-2.98-0.49-4.32-1.23
						c-1.15-0.63-2.11-1.46-2.91-2.34c0.35,0.57,0.75,1.14,1.21,1.69c0.85,1.03,1.95,2.04,3.3,2.78c1.34,0.74,2.88,1.16,4.32,1.23
						c1.42,0.07,2.79-0.1,4.03-0.47c2.5-0.74,4.46-2.04,6.13-3.41c3.31-2.79,5.66-5.99,7.86-9.2c2.17-3.23,4.06-6.54,5.84-9.9
						c7.05-13.43,12.38-27.4,18.33-41.06l-1.56-0.76C570.1,141.69,568.94,143.92,567.79,146.16z"/>
					<path class="st1" d="M578.03,66.58c-0.08-2.16-0.41-4.39-1.13-6.62c-0.71-2.22-1.86-4.42-3.4-6.34
						c-0.15-0.18-0.3-0.36-0.45-0.54c0.97,1.5,1.73,3.11,2.25,4.74c0.72,2.23,1.05,4.47,1.13,6.62c0.08,2.16-0.07,4.25-0.36,6.27
						c-0.57,4.04-1.63,7.84-2.91,11.5c-0.64,1.83-1.34,3.62-2.08,5.39c-0.73,1.77-1.5,3.52-2.3,5.24
						c-1.62,3.44-3.31,6.83-5.11,10.14c-1.81,3.32-3.73,6.61-5.85,9.76c-2.19,3.27-4.57,6.42-7.15,9.39
						c-2.27,2.98-4.77,5.78-7.52,8.32c-1.35,1.25-2.76,2.42-4.23,3.52c-1.46,1.1-2.99,2.13-4.57,3.04c-0.49,0.28-0.99,0.56-1.5,0.82
						l0.55-3.34c-0.7,0.38-1.43,0.87-2.15,1.21l-1.37,8.33c-0.57,3.64-1.18,7.28-1.7,10.91c-0.26,1.82-0.51,3.63-0.74,5.45
						c-0.25,1.81-0.47,3.62-0.68,5.43c-0.41,3.61-0.73,7.22-0.88,10.78c-0.14,3.55-0.14,7.09,0.28,10.36
						c0.21,1.62,0.54,3.18,1.01,4.47c0.47,1.3,1.08,2.21,1.6,2.61c0.08,0.07,0.17,0.13,0.26,0.18c-0.09-0.21-0.18-0.42-0.26-0.65
						c-0.47-1.29-0.8-2.85-1.01-4.47c-0.42-3.27-0.42-6.81-0.28-10.36c0.15-3.56,0.47-7.17,0.88-10.78
						c0.21-1.81,0.43-3.62,0.68-5.43c0.23-1.81,0.48-3.63,0.74-5.45c0.52-3.63,1.13-7.27,1.7-10.91l1.02-6.25
						c0.92-0.43,1.82-0.9,2.7-1.39c3.31-1.86,6.44-4.06,9.3-6.54c5.78-4.93,10.68-10.82,14.9-17.12c2.12-3.15,4.04-6.43,5.85-9.76
						c1.8-3.31,3.49-6.7,5.11-10.14c0.8-1.72,1.57-3.47,2.3-5.24c0.74-1.77,1.44-3.56,2.08-5.39c1.28-3.66,2.34-7.46,2.91-11.5
						C577.96,70.82,578.11,68.74,578.03,66.58z"/>
				</g>
			</g>
			<g>
				<circle class="st0" cx="508.03" cy="125.65" r="7.87"/>
				<circle class="st1" cx="508.03" cy="125.65" r="7.87"/>
				<circle class="st0" cx="506.43" cy="123.51" r="7.87"/>
			</g>
			<g>
				<path class="st0" d="M592.15,99.17c0.43,0.19,0.66,0.31,0.95,0.45c0.32,0.15,0.48,0.24,0.69,0.36c0.17,0.1,0.29,0.18,0.44,0.27
					l0.14,0.11l0.1,0.1c0.12,0.13,0.08,0.2,0.05,0.28l-0.07,0.24l-0.28,0.97l-0.56,1.96l-1.16,3.92c-0.79,2.61-1.62,5.22-2.51,7.8
					c-1.74,5.18-3.61,10.33-5.27,15.54c-1.68,5.2-3.2,10.43-4.63,15.65c-1.44,5.22-2.71,10.47-3.62,15.67
					c-0.45,2.6-0.79,5.19-0.91,7.7c-0.06,1.25-0.06,2.48,0.03,3.64c0.08,1.15,0.26,2.25,0.52,3.13c0.27,0.9,0.61,1.48,0.91,1.8
					c0.21,0.31,0.97,0.61,1.84,0.68c0.88,0.08,1.98-0.08,3.09-0.43c1.12-0.35,2.25-0.9,3.33-1.58c1.08-0.68,2.11-1.49,3.11-2.35
					c1-0.86,1.97-1.77,2.92-2.71c1.91-1.88,3.7-3.92,5.43-6.02c1.73-2.09,3.38-4.27,4.97-6.5c1.59-2.22,3.13-4.49,4.63-6.78
					c3-4.59,5.83-9.3,8.58-14.05c1.36-2.38,2.73-4.75,4.03-7.15c1.29-2.39,2.59-4.82,3.7-7.16c0.26-0.57,0.53-1.18,0.68-1.58
					c0.03-0.09,0.06-0.18,0.04-0.11c-0.01,0.04,0.01-0.03,0.01-0.05l0.02-0.09l0.04-0.18c0.05-0.24,0.08-0.48,0.11-0.71
					c0.13-0.95,0.12-1.92,0.03-2.52c-0.04-0.3-0.06-0.45-0.03-0.56c0.03-0.1,0.03-0.25-0.25-0.36c-0.27-0.11-0.73-0.13-1.24-0.03
					c-0.51,0.1-1.07,0.28-1.63,0.53c-1.11,0.51-2.21,1.25-3.22,2.09c-0.94,0.79-1.76,1.73-2.51,2.78c-1.49,2.1-2.64,4.53-3.5,7.05
					c-1.73,5.06-2.39,10.57-1.75,15.9c0.33,2.66,1.03,5.28,2.26,7.62c1.21,2.35,2.98,4.38,5.21,5.78c0.55,0.36,1.14,0.65,1.73,0.93
					c0.61,0.26,1.22,0.49,1.87,0.68c1.28,0.4,2.6,0.67,3.93,0.81c2.65,0.29,5.36-0.04,7.84-1.02c2.48-0.96,4.73-2.53,6.62-4.43
					c0.95-0.96,1.83-1.98,2.6-3.09c0.77-1.09,1.5-2.28,2.05-3.43l1.58,0.73c-0.68,1.34-1.45,2.5-2.32,3.66
					c-0.86,1.14-1.79,2.23-2.82,3.23c-2.05,1.99-4.46,3.69-7.17,4.73c-2.7,1.05-5.66,1.43-8.53,1.16c-1.44-0.14-2.86-0.42-4.23-0.82
					c-1.38-0.4-2.76-0.96-4.01-1.72c-2.53-1.5-4.59-3.76-5.98-6.31c-1.4-2.56-2.26-5.36-2.72-8.2c-0.46-2.84-0.54-5.72-0.33-8.58
					c0.22-2.85,0.7-5.7,1.5-8.47c0.8-2.77,1.9-5.49,3.51-8.01c0.8-1.26,1.76-2.47,2.89-3.54c1.06-1,2.14-2.01,3.4-2.96
					c0.63-0.47,1.3-0.94,2.08-1.35c0.79-0.4,1.68-0.78,2.81-0.91c0.56-0.06,1.18-0.06,1.82,0.07c0.64,0.12,1.29,0.37,1.87,0.71
					c1.18,0.7,1.99,1.72,2.51,2.68c0.53,0.98,0.83,1.95,1.01,2.88c0.18,0.94,0.24,1.86,0.2,2.77c-0.01,0.45-0.07,0.9-0.13,1.36
					l-0.05,0.34l-0.03,0.17c-0.01,0.07-0.01,0.08-0.04,0.2c-0.09,0.42-0.17,0.65-0.25,0.89c-0.31,0.91-0.61,1.57-0.92,2.26
					c-0.61,1.36-1.26,2.64-1.92,3.91c-0.66,1.27-1.33,2.51-2.04,3.74c-1.4,2.46-2.83,4.89-4.33,7.27
					c-2.99,4.77-6.18,9.42-9.52,13.95c-3.34,4.54-6.88,8.94-10.63,13.2c-3.8,4.23-7.75,8.36-12.65,11.82
					c-1.22,0.88-2.49,1.75-3.91,2.52c-1.42,0.77-3.02,1.46-4.91,1.73c-0.94,0.13-1.95,0.15-2.98,0c-0.51-0.07-1.01-0.19-1.58-0.37
					c-0.55-0.19-1.09-0.42-1.59-0.72c-1.02-0.58-1.87-1.36-2.55-2.17c-0.69-0.81-1.2-1.65-1.63-2.48c-0.85-1.67-1.35-3.29-1.74-4.87
					c-0.37-1.58-0.62-3.13-0.8-4.65c-0.36-3.05-0.46-6.02-0.46-8.96c0-2.94,0.14-5.84,0.35-8.72c0.21-2.88,0.48-5.74,0.82-8.58
					c0.68-5.69,1.64-11.29,2.64-16.88c1.03-5.58,2.09-11.15,3.42-16.65c0.65-2.75,1.41-5.48,2.25-8.18c0.42-1.35,0.86-2.7,1.32-4.04
					c0.23-0.67,0.46-1.34,0.7-2.01l0.36-1.01l0.09-0.25c0.03-0.08,0.04-0.18,0.21-0.21l0.14-0.03l0.19-0.01
					c0.17,0.01,0.32,0.01,0.52,0.03c0.23,0.03,0.42,0.04,0.77,0.11c0.32,0.06,0.58,0.09,1.03,0.2L592.15,99.17z"/>
				<g>
					<path class="st1" d="M611.16,130.99c0.87-2.52,2.01-4.95,3.5-7.05c0.75-1.05,1.58-1.99,2.51-2.78c1.01-0.85,2.1-1.59,3.22-2.09
						c0.54-0.25,1.1-0.43,1.6-0.53c0.01-0.46-0.02-0.88-0.06-1.19c-0.04-0.3-0.06-0.45-0.03-0.56c0.03-0.1,0.03-0.25-0.25-0.36
						c-0.27-0.11-0.73-0.13-1.24-0.03c-0.51,0.1-1.07,0.28-1.63,0.53c-1.11,0.51-2.21,1.25-3.22,2.09
						c-0.94,0.79-1.76,1.73-2.51,2.78c-1.49,2.1-2.64,4.53-3.5,7.05c-1.73,5.06-2.39,10.57-1.75,15.9c0.04,0.35,0.09,0.69,0.15,1.04
						c0.41-0.66,0.82-1.32,1.22-1.98C609.06,139.46,609.76,135.07,611.16,130.99z"/>
					<path class="st1" d="M628.79,117.59c0.18,0.94,0.23,1.86,0.2,2.77c-0.01,0.45-0.07,0.9-0.13,1.36l-0.05,0.34l-0.03,0.17
						c-0.01,0.07-0.01,0.08-0.04,0.2c-0.09,0.42-0.17,0.65-0.25,0.89c-0.31,0.91-0.61,1.57-0.92,2.26
						c-0.61,1.36-1.26,2.64-1.92,3.91c-0.66,1.27-1.33,2.51-2.04,3.74c-1.4,2.46-2.83,4.89-4.33,7.27
						c-2.74,4.37-5.65,8.63-8.69,12.8c0.51,0.84,1.09,1.63,1.74,2.36c-0.05-0.08-0.1-0.15-0.14-0.23c3.04-4.17,5.95-8.43,8.69-12.8
						c1.5-2.38,2.92-4.82,4.33-7.27c0.7-1.23,1.37-2.48,2.04-3.74c0.66-1.27,1.3-2.55,1.92-3.91c0.31-0.7,0.61-1.36,0.92-2.26
						c0.08-0.24,0.16-0.48,0.25-0.89c0.03-0.12,0.03-0.14,0.04-0.2l0.03-0.17l0.05-0.34c0.06-0.45,0.11-0.9,0.13-1.36
						c0.03-0.91-0.02-1.83-0.2-2.77c-0.19-0.94-0.48-1.91-1.01-2.88c-0.36-0.66-0.85-1.34-1.5-1.93
						C628.34,115.82,628.62,116.72,628.79,117.59z"/>
					<path class="st1" d="M592.57,99.82l-0.56,1.96l-1.16,3.92c-0.79,2.61-1.62,5.22-2.51,7.8c-1.74,5.18-3.61,10.33-5.27,15.54
						c-1.68,5.2-3.2,10.43-4.63,15.65c-1.44,5.22-2.71,10.47-3.62,15.67c-0.45,2.6-0.79,5.19-0.91,7.7
						c-0.06,1.25-0.06,2.48,0.03,3.64c0.08,1.15,0.26,2.25,0.52,3.13c0.27,0.9,0.61,1.48,0.91,1.8c0.11,0.16,0.38,0.32,0.73,0.45
						c-0.01-0.04-0.03-0.07-0.04-0.11c-0.27-0.88-0.44-1.98-0.52-3.13c-0.08-1.16-0.08-2.39-0.03-3.64c0.13-2.51,0.47-5.1,0.91-7.7
						c0.91-5.2,2.18-10.45,3.62-15.67c1.43-5.23,2.94-10.46,4.63-15.65c1.66-5.2,3.52-10.36,5.27-15.54
						c0.89-2.59,1.71-5.19,2.51-7.8l1.16-3.92l0.56-1.96l0.28-0.97l0.07-0.24c0.02-0.08,0.07-0.15-0.05-0.28l-0.1-0.1l-0.14-0.11
						c-0.14-0.09-0.27-0.17-0.44-0.27c-0.21-0.11-0.37-0.21-0.69-0.36c-0.14-0.07-0.27-0.13-0.41-0.2L592.57,99.82z"/>
					<path class="st1" d="M643.52,150.73c-0.55,1.15-1.28,2.34-2.05,3.43c-0.78,1.1-1.66,2.13-2.6,3.09
						c-1.89,1.91-4.14,3.47-6.62,4.43c-2.48,0.98-5.18,1.3-7.84,1.02c-1.33-0.14-2.64-0.41-3.93-0.81c-0.32-0.09-0.62-0.19-0.92-0.3
						c-0.38-0.09-0.76-0.19-1.13-0.3c-1.38-0.4-2.76-0.96-4.01-1.72c-1.98-1.17-3.66-2.81-4.97-4.69
						c-3.24,4.39-6.68,8.65-10.31,12.78c-3.8,4.23-7.75,8.36-12.65,11.82c-1.22,0.88-2.49,1.75-3.91,2.52
						c-1.42,0.77-3.02,1.46-4.91,1.73c-0.94,0.13-1.95,0.15-2.98,0c-0.51-0.07-1.01-0.19-1.58-0.37c-0.55-0.19-1.09-0.42-1.59-0.72
						c-0.82-0.47-1.53-1.07-2.13-1.7c0.33,0.56,0.71,1.12,1.18,1.67c0.68,0.8,1.53,1.58,2.55,2.17c0.5,0.3,1.05,0.53,1.59,0.72
						c0.57,0.18,1.07,0.3,1.58,0.37c1.03,0.16,2.04,0.14,2.98,0c1.9-0.27,3.49-0.96,4.91-1.73c1.42-0.77,2.69-1.64,3.91-2.52
						c4.89-3.46,8.85-7.59,12.65-11.82c3.63-4.13,7.07-8.39,10.31-12.78c1.31,1.88,2.99,3.52,4.97,4.69
						c1.26,0.75,2.63,1.32,4.01,1.72c1.37,0.41,2.79,0.68,4.23,0.82c2.87,0.27,5.83-0.11,8.53-1.16c2.71-1.04,5.11-2.74,7.17-4.73
						c1.03-1,1.96-2.09,2.82-3.23c0.86-1.15,1.63-2.32,2.32-3.66L643.52,150.73z"/>
				</g>
			</g>
			<g>
				<path class="st0" d="M667.01,119.63c-1.56-1.85-3.65-3.46-5.76-4.04c-2.13-0.58-4.15-0.06-5.95,1.22
					c-0.9,0.63-1.73,1.44-2.52,2.31c-0.79,0.89-1.51,1.82-2.2,2.88c-1.42,2.06-2.62,4.23-3.62,6.44c-1.98,4.45-3.02,9.19-2.8,13.84
					c0.19,4.65,1.65,9.15,4.12,13.1c0.29,0.5,0.64,0.98,0.96,1.46c0.34,0.46,0.73,1.01,0.94,1.25c0.53,0.58,1.09,1.01,1.76,1.28
					c1.31,0.55,3.14,0.5,5.02-0.16c1.88-0.67,3.77-1.86,5.42-3.37c1.67-1.51,3.14-3.32,4.36-5.32c2.44-4.01,3.89-8.73,4.33-13.66
					c0.23-2.47,0.21-4.99-0.02-7.52c-0.1-1.27-0.26-2.54-0.48-3.82c-0.18-1.28-0.47-2.55-0.73-3.83l1.67-0.44v0
					c0.64,2.43,1.11,4.89,1.53,7.34c0.44,2.45,0.78,4.91,1.15,7.36l2.03,14.63c0.35,2.42,0.74,4.83,1.15,7.21
					c0.4,2.38,0.86,4.74,1.41,7.04c0.55,2.29,1.19,4.54,1.98,6.58c0.4,1.01,0.84,1.97,1.32,2.78c0.47,0.81,1.01,1.47,1.42,1.77
					c0.2,0.15,0.36,0.22,0.46,0.24c0.1,0.02,0.16,0.02,0.29,0c0.3-0.06,0.65-0.14,1.16-0.49c0.51-0.33,1.13-0.92,1.73-1.64
					c0.61-0.72,1.23-1.58,1.8-2.5c1.17-1.85,2.2-3.96,3.07-6.15c0.86-2.21,1.55-4.51,2.17-6.84c1.24-4.67,2.2-9.46,2.98-14.29
					c0.38-2.42,0.73-4.84,1.01-7.27c0.26-2.42,0.51-4.9,0.55-7.26l1.73-0.1c0.12,1.29,0.16,2.53,0.18,3.78
					c0.02,1.25,0.02,2.49,0.01,3.74c-0.03,2.49-0.09,4.98-0.22,7.46c-0.25,4.98-0.69,9.96-1.44,14.95c-0.39,2.49-0.85,4.99-1.4,7.51
					c-0.55,2.52-1.17,5.08-2.16,7.66c-0.52,1.29-1.11,2.59-1.94,3.87c-0.84,1.27-1.86,2.56-3.37,3.67
					c-1.47,1.11-3.52,1.94-5.69,1.96c-1.1,0.01-2.28-0.2-3.33-0.62c-1.05-0.42-1.95-1.03-2.69-1.67c-1.47-1.31-2.35-2.72-3.06-4.06
					c-0.7-1.35-1.2-2.68-1.63-3.99c-0.85-2.61-1.35-5.18-1.76-7.72c-0.41-2.54-0.7-5.05-0.93-7.56c-0.23-2.51-0.36-5-0.49-7.49
					c-0.26-4.97-0.31-9.93-0.38-14.86c-0.06-4.93-0.07-9.85-0.37-14.72l0,0l1.67-0.44c2.49,4.8,4.09,10.2,4.4,15.84
					c0.31,5.62-0.71,11.49-3.38,16.76c-1.32,2.63-3.05,5.1-5.18,7.27c-2.14,2.15-4.69,4.04-7.76,5.22c-1.53,0.59-3.2,1.01-4.99,1.1
					c-1.77,0.09-3.68-0.16-5.47-0.88c-0.89-0.36-1.75-0.82-2.53-1.38c-0.78-0.56-1.47-1.21-2.09-1.91c-0.65-0.76-1-1.31-1.44-1.91
					c-0.41-0.61-0.83-1.22-1.2-1.86c-3.08-5.03-4.81-10.99-4.77-16.92c0-1.48,0.11-2.96,0.32-4.41c0.21-1.45,0.49-2.89,0.9-4.29
					c0.39-1.4,0.87-2.77,1.43-4.1c0.54-1.34,1.19-2.62,1.88-3.87c1.39-2.49,3.04-4.8,4.86-6.92c1.82-2.12,3.92-4.25,6.68-5.68
					c1.37-0.71,2.92-1.24,4.55-1.36c1.63-0.14,3.28,0.21,4.69,0.86c1.41,0.65,2.62,1.57,3.62,2.61c1,1.06,1.83,2.16,2.51,3.47
					L667.01,119.63z"/>
				<g>
					<path class="st1" d="M700.64,133.41c-0.03-1.25-0.06-2.49-0.18-3.78l-1.46,0.09c0.02,0.52,0.03,1.04,0.04,1.56
						c0.02,1.25,0.02,2.49,0.01,3.74c-0.03,2.49-0.09,4.98-0.22,7.46c-0.25,4.98-0.69,9.96-1.44,14.95
						c-0.39,2.49-0.85,4.99-1.4,7.51c-0.55,2.52-1.17,5.08-2.16,7.66c-0.52,1.29-1.11,2.59-1.94,3.87
						c-0.84,1.27-1.86,2.56-3.37,3.67c-1.47,1.11-3.52,1.94-5.69,1.96c-1.1,0.01-2.28-0.2-3.33-0.62c-1.05-0.42-1.95-1.03-2.69-1.67
						c-0.31-0.27-0.58-0.55-0.84-0.83c0.61,1,1.37,2.01,2.44,2.97c0.73,0.64,1.63,1.25,2.69,1.67c1.05,0.43,2.22,0.64,3.33,0.62
						c2.17-0.02,4.23-0.85,5.69-1.96c1.5-1.1,2.53-2.39,3.37-3.67c0.83-1.28,1.42-2.59,1.94-3.87c0.99-2.59,1.61-5.14,2.16-7.66
						c0.55-2.52,1.01-5.01,1.4-7.51c0.75-4.99,1.19-9.97,1.44-14.95c0.13-2.49,0.19-4.98,0.22-7.46
						C700.67,135.91,700.67,134.66,700.64,133.41z"/>
					<path class="st1" d="M674.27,134.8c0.14,2.59,0,5.23-0.45,7.84l0.8,5.8c0.35,2.42,0.74,4.83,1.15,7.21
						c0.4,2.38,0.86,4.74,1.41,7.04c0.55,2.29,1.19,4.54,1.98,6.58c0.4,1.01,0.84,1.97,1.32,2.78c0.45,0.78,0.97,1.41,1.37,1.72
						c-0.4-0.72-0.76-1.52-1.09-2.37c-0.79-2.04-1.43-4.29-1.98-6.58c-0.55-2.3-1-4.66-1.41-7.04c-0.41-2.38-0.8-4.79-1.15-7.21
						l-0.8-5.8c0.45-2.61,0.6-5.25,0.45-7.84c-0.31-5.64-1.91-11.04-4.4-15.84l-0.51,0.14C672.82,125.44,674.01,130.03,674.27,134.8
						z"/>
					<path class="st1" d="M666.89,116.59l-1.48,0.91c-1.56-1.85-3.65-3.46-5.76-4.04c-2.13-0.58-4.15-0.06-5.95,1.22
						c-0.9,0.63-1.73,1.44-2.52,2.31c-0.79,0.89-1.51,1.82-2.2,2.88c-1.42,2.06-2.62,4.23-3.62,6.44c-1.98,4.45-3.02,9.19-2.8,13.84
						c0.19,4.65,1.65,9.15,4.12,13.1c0.29,0.5,0.64,0.98,0.96,1.46c0.34,0.46,0.73,1.01,0.94,1.25c0.06,0.06,0.11,0.11,0.17,0.17
						c-0.16-0.24-0.33-0.49-0.47-0.74c-2.46-3.96-3.92-8.46-4.12-13.1c-0.22-4.65,0.82-9.39,2.8-13.84c1-2.22,2.2-4.39,3.62-6.44
						c0.69-1.06,1.41-1.99,2.2-2.88c0.79-0.87,1.62-1.68,2.52-2.31c1.8-1.28,3.83-1.8,5.95-1.22c2.11,0.58,4.2,2.19,5.76,4.04
						l1.48-0.91c-0.58-1.12-1.28-2.09-2.1-3.01C666.56,115.99,666.73,116.28,666.89,116.59z"/>
					<path class="st1" d="M669.43,156.47c-0.06-0.69-0.12-1.39-0.17-2.08c-1.02,1.57-2.2,3.06-3.55,4.42
						c-2.14,2.15-4.69,4.04-7.76,5.22c-1.53,0.59-3.2,1.01-4.99,1.1c-1.77,0.09-3.68-0.16-5.47-0.88c-0.89-0.36-1.75-0.82-2.53-1.38
						c-0.77-0.55-1.45-1.2-2.06-1.88c0.04,0.06,0.09,0.13,0.13,0.19c0.44,0.6,0.8,1.15,1.44,1.91c0.62,0.7,1.31,1.35,2.09,1.91
						c0.78,0.56,1.64,1.02,2.53,1.38c1.79,0.72,3.69,0.98,5.47,0.88c1.78-0.09,3.46-0.51,4.99-1.1c3.08-1.18,5.62-3.07,7.76-5.22
						c0.83-0.84,1.59-1.73,2.3-2.65C669.55,157.69,669.49,157.08,669.43,156.47z"/>
				</g>
			</g>
			<g>
				<path class="st0" d="M698.67,131.85c0.28-8.84-0.35-17.79,0.21-26.71c0.31-4.45,0.85-8.93,2.25-13.2
					c0.69-2.13,1.59-4.21,2.79-6.11c1.19-1.91,2.71-3.62,4.48-5.03c1.75-1.4,3.88-2.51,6.22-2.61c1.16-0.06,2.32,0.15,3.4,0.56
					c1.08,0.41,2.08,1,2.98,1.69c1.81,1.4,3.28,3.16,4.57,5.01c1.28,1.86,2.39,3.83,3.37,5.86c1.98,4.05,3.5,8.31,4.75,12.65
					c0.62,2.17,1.13,4.38,1.65,6.6c0.51,2.22,1.02,4.46,1.43,6.77c0.41,2.31,0.71,4.67,0.68,7.19c-0.04,1.27-0.16,2.57-0.51,3.97
					c-0.39,1.38-0.92,2.95-2.48,4.53c-0.78,0.76-1.93,1.47-3.19,1.76c-1.26,0.3-2.48,0.19-3.45-0.06c-0.5-0.12-0.94-0.28-1.35-0.45
					c-0.39-0.17-0.78-0.36-1.15-0.58c-0.74-0.43-1.42-0.93-2.02-1.48c-1.21-1.11-2.1-2.37-2.79-3.63c-0.69-1.27-1.18-2.55-1.56-3.81
					c-0.75-2.53-1.04-5.02-1.16-7.46c-0.11-2.44-0.01-4.83,0.24-7.18c0.5-4.71,1.54-9.27,2.98-13.69
					c2.89-8.8,7.35-17.12,13.53-24.02c3.06-3.46,6.64-6.48,10.57-8.87c1.98-1.18,4.05-2.18,6.19-2.98c2.14-0.79,4.35-1.36,6.58-1.69
					l0.12,0.52c-4.2,1.42-8.06,3.57-11.43,6.27c-3.41,2.66-6.29,5.89-8.84,9.34c-2.53,3.47-4.62,7.24-6.4,11.13
					c-1.76,3.9-3.19,7.96-4.25,12.08c-1.06,4.12-1.78,8.33-2.03,12.49c-0.11,2.08-0.13,4.15,0.04,6.15c0.16,2,0.5,3.95,1.07,5.68
					c0.55,1.72,1.39,3.19,2.3,3.95c0.22,0.19,0.45,0.35,0.68,0.47c0.11,0.06,0.23,0.11,0.35,0.16c0.1,0.03,0.18,0.06,0.23,0.07
					c0.1,0.03,0.03-0.01-0.15,0.04c-0.17,0.05-0.32,0.18-0.3,0.18c0.06,0.05,0.5-0.48,0.82-1.19c0.34-0.71,0.64-1.61,0.9-2.55
					c0.28-0.94,0.49-1.95,0.67-2.98c0.19-1.03,0.34-2.09,0.44-3.16c0.22-2.14,0.27-4.33,0.14-6.51c-0.12-2.18-0.45-4.35-0.84-6.51
					c-0.78-4.32-1.95-8.59-3.6-12.67c-0.85-2.03-1.8-4.02-2.98-5.87c-1.17-1.85-2.54-3.59-4.23-4.96c-1.66-1.37-3.75-2.29-5.9-2.2
					c-2.15,0.07-4.19,1.08-5.91,2.41c-1.73,1.35-3.2,3.02-4.37,4.88c-1.17,1.86-2.08,3.89-2.74,5.99
					c-1.31,4.22-1.86,8.66-2.04,13.08c-0.19,4.43-0.02,8.87,0.21,13.31c0.28,4.44,0.58,8.88,0.78,13.36H698.67z"/>
				<g>
					<path class="st1" d="M722.76,83.2c-0.88-1.31-1.87-2.55-3.01-3.62c-0.55-0.33-1.12-0.61-1.72-0.84
						c-1.08-0.41-2.24-0.62-3.4-0.56c-2.34,0.1-4.47,1.22-6.22,2.61c-1.77,1.4-3.29,3.12-4.48,5.03c-1.2,1.91-2.1,3.98-2.79,6.11
						c-1.4,4.27-1.94,8.75-2.25,13.2c-0.42,6.72-0.16,13.45-0.13,20.14c0.08,1.48,0.16,2.95,0.23,4.44h-0.26
						c-0.01,0.71-0.02,1.42-0.04,2.13h1.9c-0.2-4.49-0.5-8.92-0.78-13.36c-0.24-4.44-0.4-8.88-0.21-13.31
						c0.18-4.42,0.72-8.86,2.04-13.08c0.67-2.1,1.57-4.13,2.74-5.99c1.17-1.86,2.64-3.53,4.37-4.88c1.72-1.33,3.76-2.35,5.91-2.41
						c2.15-0.09,4.24,0.83,5.9,2.2C721.35,81.67,722.08,82.41,722.76,83.2z"/>
					<path class="st1" d="M724.53,120.41c0.55,1.72,1.39,3.19,2.3,3.95c0.02,0.02,0.04,0.03,0.06,0.05
						c-0.29-0.56-0.55-1.19-0.76-1.86c-0.56-1.72-0.91-3.67-1.07-5.68c-0.16-2.01-0.15-4.07-0.04-6.15
						c0.25-4.16,0.97-8.37,2.03-12.49c0.28-1.1,0.59-2.19,0.93-3.28c-0.35-1.18-0.74-2.35-1.17-3.51c-0.51,1.54-0.96,3.09-1.36,4.65
						c-1.06,4.12-1.78,8.33-2.03,12.49c-0.11,2.08-0.13,4.15,0.04,6.15C723.62,116.73,723.97,118.68,724.53,120.41z"/>
					<path class="st1" d="M757.85,58.88c-2.23,0.32-4.44,0.9-6.58,1.69c-2.14,0.8-4.21,1.8-6.19,2.98c-0.24,0.14-0.47,0.3-0.7,0.44
						c-3.16,2.57-5.88,5.63-8.28,8.88c-2.53,3.47-4.62,7.24-6.4,11.13c-0.81,1.8-1.55,3.64-2.22,5.49c1.9,3.96,3.39,8.11,4.6,12.34
						c0.62,2.17,1.13,4.38,1.65,6.6c0.51,2.22,1.02,4.46,1.43,6.77c0.41,2.31,0.71,4.67,0.68,7.19c-0.04,1.27-0.16,2.57-0.51,3.97
						c-0.39,1.38-0.92,2.95-2.48,4.53c-0.78,0.76-1.93,1.47-3.19,1.76c-1.26,0.3-2.48,0.19-3.46-0.06c-0.5-0.12-0.94-0.28-1.35-0.45
						c-0.39-0.17-0.78-0.36-1.15-0.58c-0.74-0.43-1.42-0.93-2.02-1.48c-0.27-0.25-0.52-0.5-0.76-0.77c0.62,1.01,1.39,2.01,2.36,2.9
						c0.6,0.55,1.28,1.06,2.02,1.48c0.37,0.21,0.76,0.4,1.15,0.58c0.42,0.17,0.86,0.33,1.35,0.45c0.98,0.24,2.19,0.36,3.46,0.06
						c1.26-0.29,2.41-1,3.19-1.76c1.56-1.58,2.09-3.15,2.48-4.53c0.36-1.4,0.48-2.7,0.51-3.97c0.03-2.52-0.27-4.89-0.68-7.19
						c-0.41-2.31-0.92-4.55-1.43-6.77c-0.52-2.22-1.02-4.42-1.65-6.6c-1.21-4.23-2.7-8.38-4.6-12.34c0.67-1.86,1.41-3.69,2.22-5.49
						c1.78-3.89,3.87-7.66,6.4-11.13c2.54-3.45,5.43-6.68,8.84-9.34c3.37-2.7,7.23-4.85,11.43-6.27L757.85,58.88z"/>
				</g>
			</g>
			<path class="st0" d="M469.82,50.72c0,0-1.69-0.54-1.82-0.58c-1.01-0.29-3.65-0.85-3.65-0.85l-0.85,4.44c0,0,2.4,0.82,3.18,1.15
				c0.8,0.34,3.12,1.55,3.12,1.55s0.53-2.34,0.57-3.87C470.38,52.09,469.93,50.75,469.82,50.72"/>
		</g>
		<g>
			<path class="st0" d="M340.78,258.14c-0.95-2-1.54-4.12-1.97-6.28c-0.42-2.16-0.65-4.35-0.69-6.56c-0.1-4.42,0.63-8.87,2-13.1
				c0.7-2.12,1.57-4.17,2.6-6.15c0.55-0.97,1.07-1.95,1.7-2.87c0.31-0.46,0.59-0.94,0.93-1.38l1-1.33c1.39-1.72,2.87-3.37,4.55-4.78
				c1.62-1.47,3.43-2.71,5.28-3.83l0.33,0.42c-2.93,3.12-5.56,6.38-7.69,9.91c-1.06,1.76-1.99,3.59-2.84,5.45
				c-0.8,1.88-1.51,3.79-2.09,5.74c-1.15,3.91-1.79,7.96-2.2,12.06c-0.38,4.11-0.48,8.28-0.4,12.57L340.78,258.14z"/>
			<path class="st1" d="M339.11,252.22c-0.42-2.16-0.65-4.35-0.69-6.56c-0.1-4.42,0.63-8.87,2-13.1c0.7-2.12,1.57-4.17,2.6-6.15
				c0.55-0.97,1.07-1.95,1.7-2.87c0.31-0.46,0.59-0.94,0.93-1.38l1-1.33c1.39-1.72,2.87-3.37,4.55-4.78
				c1.62-1.46,3.42-2.71,5.27-3.82l-0.28-0.36c-1.85,1.11-3.66,2.36-5.28,3.83c-1.68,1.41-3.16,3.06-4.55,4.78l-1,1.33
				c-0.34,0.44-0.62,0.92-0.93,1.38c-0.63,0.92-1.15,1.9-1.7,2.87c-1.02,1.98-1.9,4.03-2.6,6.15c-1.37,4.24-2.09,8.69-2,13.1
				c0.04,2.21,0.27,4.41,0.69,6.56c0.43,2.15,1.02,4.27,1.97,6.28l0.12-0.03C340.06,256.22,339.51,254.24,339.11,252.22z"/>
		</g>
		<g>
			<path class="st0" d="M681.69,158.07c0.14,1.57,0.52,3.19,1.29,4.54c0.4,0.65,0.95,1.23,1.61,1.37c0.65,0.16,1.38-0.16,1.95-0.58
				c1.14-0.93,1.81-2.4,2.37-3.84c0.55-1.46,0.99-2.98,1.45-4.49c0.45-1.52,0.87-3.06,1.23-4.62c0.39-1.55,0.71-3.13,1.05-4.7
				l1.91-9.52l0.53,0.05c-0.01,3.27-0.25,6.52-0.68,9.77c-0.21,1.62-0.49,3.24-0.8,4.85c-0.34,1.61-0.71,3.21-1.2,4.8
				c-0.49,1.58-1.13,3.14-1.97,4.61c-0.42,0.73-0.89,1.45-1.44,2.12c-0.55,0.66-1.17,1.3-1.94,1.76c-0.4,0.23-0.8,0.42-1.25,0.52
				c-0.45,0.1-0.94,0.12-1.4-0.02c-0.94-0.28-1.53-1.05-1.92-1.78c-0.4-0.75-0.67-1.54-0.87-2.34c-0.2-0.8-0.35-1.6-0.46-2.43
				L681.69,158.07z"/>
			<g>
				<path class="st1" d="M682.44,161.96c0.18,0.3,0.4,0.58,0.64,0.81c-0.04-0.05-0.07-0.11-0.11-0.16
					c-0.77-1.35-1.14-2.97-1.29-4.54l-0.45,0.04C681.42,159.46,681.78,160.81,682.44,161.96z"/>
				<path class="st1" d="M694.55,136.21l-0.02,0.08c-0.04,3.04-0.26,6.08-0.66,9.1c-0.21,1.62-0.49,3.24-0.8,4.85
					c-0.34,1.61-0.71,3.21-1.2,4.8c-0.49,1.58-1.13,3.14-1.97,4.61c-0.42,0.73-0.89,1.45-1.44,2.12c-0.55,0.66-1.17,1.3-1.94,1.76
					c-0.4,0.23-0.8,0.42-1.25,0.52c-0.45,0.1-0.94,0.12-1.4-0.02c-0.44-0.13-0.8-0.37-1.11-0.66c0.38,0.57,0.9,1.09,1.64,1.31
					c0.46,0.13,0.95,0.12,1.4,0.02c0.45-0.09,0.86-0.29,1.25-0.52c0.77-0.47,1.39-1.1,1.94-1.76c0.55-0.67,1.02-1.38,1.44-2.12
					c0.84-1.47,1.48-3.02,1.97-4.61c0.49-1.58,0.85-3.19,1.2-4.8c0.31-1.61,0.59-3.23,0.8-4.85c0.43-3.24,0.67-6.5,0.68-9.77
					L694.55,136.21z"/>
			</g>
		</g>
	</g>
</g>
</svg>
